<svg xmlns="http://www.w3.org/2000/svg" viewBox="0 0 636 1674.92"><defs><style>.cls-1{fill:#bce0fd;}</style></defs><g id="Layer_2" data-name="Layer 2"><g id="people-whole"><path class="cls-1" d="M318,933l4.15,0a2.32,2.32,0,0,1,1.74,1.9c1.73,11.54,10.55,84.63,12.68,109.07,2.31,26.49,6.72,66.33,11.64,105.72,9.93,79.39,29.77,109.16,29.77,129s5.26,107.9,9.93,138.94c6.66,44.34,9.92,69.46,9.92,69.46l12,109.23a34.71,34.71,0,0,1-.69,11.76c-1.66,7.07-6.59,43.19.85,53.89,17.48,25.15,46.22,9.78,59-14,6.4-11.91-1.7-41.79-1.7-41.79,0-19.85,19.65-206.79,19.85-238.17.42-68-19.85-138.93-19.85-158.78s-.87-79.41,0-99.24c1.27-29,4.51-74,9.92-119.09,5.29-44.1,8.35-136.46,8.35-205.93,0-29.77-8.35-83.1-8.35-111.63,0-29.77-9.92-67.85-9.92-99.23v-92a.83.83,0,0,1,1.63-.22c6.33,22.93,26,70.07,28.14,92.23,6,63,13,78.71,19.85,99.23,9.92,29.78,39.69,109.17,39.69,109.17l19.78,59.33a.72.72,0,0,1,0,.41C575.78,845.74,571,910,586,937c7.17,12.91,10.31,43.76,10.31,43.76a.8.8,0,0,1-.14.45c-1.73,2.63-19.71,30-19.71,39.5,0,9.92,9.92,9.92,9.92,9.92h9.56a.87.87,0,0,0,.62-.28c3.25-3.64,5.64-5.62,9.67-9.64,9.92-9.93,17.41-21.81,19.85-29.78A226.15,226.15,0,0,0,636,931.4s0-49.62-9.92-69.46-9.93-49.62-9.93-49.62c0-29.77-9.92-89.32-9.92-158.78,0-21.95-38.83-126.68-39.68-129l0-.08c-9.74-39-9.91-87.62-9.91-89.24a.17.17,0,0,1,0-.07c.22-2,9.45-89.63-29.78-119-22.45-16.84-58.79-41.38-79.39-49.62-48.52-19.41-59.08-38.82-59.53-39.67l0-.06c-.62-.9-14.24-21.06-9.91-29.74,2.48-5,9.59-13,10.39-27,.75-13,2.28-18.95,4.85-23.3,1.91-3.22,3.35,4.25,7.35-9.75,3-10.34,5.69-23.23,2-26-4-3-4.74.63-4.74-3.28,0-19.85,0-49.62-19.85-79.39S317.57,0,317.57,0H318"/><path class="cls-1" d="M470,1539c14.45.31,33.33,31.57,34,46,.85,18.39-25.57,50.46-40,70S393.32,1537.38,470,1539Z"/><path class="cls-1" d="M318,933l-4.15,0a2.32,2.32,0,0,0-1.74,1.9c-1.73,11.54-10.55,84.63-12.68,109.07-2.31,26.49-6.72,66.33-11.64,105.72-9.92,79.39-29.77,109.16-29.77,129s-5.26,107.9-9.93,138.94c-6.66,44.34-9.92,69.46-9.92,69.46l-12,109.23a35,35,0,0,0,.69,11.76c1.66,7.07,6.59,43.19-.85,53.89-17.48,25.15-46.22,9.78-59-14-6.4-11.91,1.7-41.79,1.7-41.79,0-19.85-19.65-206.79-19.84-238.17-.43-68,19.84-138.93,19.84-158.78s.87-79.41,0-99.24c-1.27-29-4.51-74-9.92-119.09-5.29-44.1-8.35-136.46-8.35-205.93,0-29.77,8.35-83.1,8.35-111.63,0-29.77,9.92-67.85,9.92-99.23v-92a.83.83,0,0,0-1.63-.22c-6.33,22.93-26,70.07-28.14,92.23-6,63-13,78.71-19.84,99.23-9.93,29.78-39.7,109.17-39.7,109.17L59.61,841.88a.82.82,0,0,0,0,.41C60.22,845.74,65,910,50,937c-7.17,12.91-10.3,43.76-10.3,43.76a.79.79,0,0,0,.13.45c1.73,2.63,19.71,30,19.71,39.5,0,9.92-9.92,9.92-9.92,9.92H40.07a.88.88,0,0,1-.63-.28c-3.25-3.64-5.64-5.62-9.67-9.64-9.92-9.93-17.41-21.81-19.85-29.78A226.15,226.15,0,0,1,0,931.4s0-49.62,9.92-69.46,9.93-49.62,9.93-49.62c0-29.77,9.92-89.32,9.92-158.78,0-21.95,38.83-126.68,39.68-129l0-.08c9.74-39,9.91-87.62,9.91-89.24v-.07c-.22-2-9.46-89.63,29.77-119,22.46-16.84,58.79-41.38,79.39-49.62,48.52-19.41,59.09-38.82,59.53-39.67a.21.21,0,0,1,0-.06c.61-.9,14.24-21.06,9.9-29.74-2.48-5-9.59-13-10.39-27-.75-13-2.28-18.95-4.85-23.3-1.9-3.22-3.35,4.25-7.35-9.75-3-10.34-5.69-23.23-2-26,4-3,4.74.63,4.74-3.28,0-19.85,0-49.62,19.85-79.39S318.43,0,318.43,0H318"/><path class="cls-1" d="M166,1539c-14.45.31-33.33,31.57-34,46-.85,18.39,25.58,50.46,40,70S242.68,1537.38,166,1539Z"/></g></g></svg>