<svg xmlns="http://www.w3.org/2000/svg" viewBox="0 0 872 1704.35"><defs><style>.cls-1{fill:#bce0fd;}</style></defs><g id="Layer_2" data-name="Layer 2"><g id="people-whole"><path class="cls-1" d="M436,0s41-1,60,24c21.65,28.48,22,57.15,22,77,0,1.31.62-.32,4-2,10-5,5,47-7,55-4.06,2.7-4.51-4.12-5.31,1.39-3.51,24-1.52,36.22-10.69,57.61-3,7,1,18,1,18s24.84,25.57,54.61,35.49l59.54,19.85a171.24,171.24,0,0,1,39.7,29.77c19.85,19.85,29.77,59.54,29.77,59.54s39.7,99.24,49.62,138.94c0,0,19.85,19.85,29.77,39.69s29.77,79.39,59.54,188.55c0,0,0,9.93,9.93,29.78,7.41,14.82,25.89,40.72,34.77,52.87A24.66,24.66,0,0,1,872,840.87c-.51,15.1-2.44,46.82-9.74,70.68-2.44,8-9.93,19.85-19.85,29.77-4.13,4.13-16.46,6.11-19.85,9.92h-9.92s-9.92,0-9.92-9.92,19.84-39.7,19.84-39.7V871.85L816.8,843.1l-4.17-20.87s0,10.47-1,21.79c-1.85,21.71-18.89,27.83-22.93,6.69-2-10.19-5.73-19.93-5.84-30.3-.14-11.95-6.34-44.84-6.34-44.84L726.94,706.1s-43.32-62.49-53.24-92.26-29.77-39.7-39.7-119.09c0,0,0,29.77-9.92,49.62s0,59.54,9.92,89.31,9.93,59.55,9.93,89.32c0,28.53-7.23,30.66,0,59.54,9.92,39.69,5.29,134.52,0,178.63-5.42,45.12-59.55,138.93-59.55,158.78v69.46c0,19.85,0,19.85,9.93,69.47s0,138.93-9.93,168.7-19.85,79.4-19.85,99.24,19.85,59.55,19.85,59.55,29.77,59.54,39.7,59.54,19.57,25.88,19.57,25.88-9.65,23.74-19.57,23.74-49.62,19.84-59.55,0-49.61-69.47-49.61-69.47-9.93-9.92-9.93-19.85V1497.05s-19.85-99.24-29.77-129-9.92-129-9.92-148.85-9.93-29.78-9.93-69.47S445.45,981,445.45,981V961.17l-5.62.5a44.53,44.53,0,0,1-7.66,0l-5.62-.5V981s-9.92,129-9.92,168.7-9.92,49.62-9.92,69.47,0,119.08-9.93,148.85-29.77,129-29.77,129v109.16c0,9.93-9.92,19.85-9.92,19.85s-39.7,49.62-49.62,69.47-49.62,0-59.54,0-19.58-23.74-19.58-23.74,9.65-25.88,19.58-25.88,39.69-59.54,39.69-59.54,19.85-39.7,19.85-59.55-9.93-69.46-19.85-99.24-19.85-119.08-9.92-168.7,9.92-49.62,9.92-69.47V1120c0-19.85-54.13-113.66-59.54-158.78-5.29-44.11-9.93-138.94,0-178.63,7.22-28.88,0-31,0-59.54,0-29.77,0-59.55,9.92-89.32s19.85-69.46,9.93-89.31S238,494.75,238,494.75c-9.92,79.39-29.77,89.31-39.69,119.09s-53.25,92.26-53.25,92.26L95.44,775.57s-6.2,32.89-6.33,44.84c-.12,10.37-3.9,20.11-5.85,30.3-4,21.14-21.08,15-22.93-6.69-1-11.32-1-21.79-1-21.79L55.2,843.1l-5.75,28.75v29.77S69.3,931.4,69.3,941.32s-9.93,9.92-9.93,9.92H49.45c-3.38-3.81-15.72-5.79-19.85-9.92-9.92-9.92-17.41-21.81-19.85-29.77C2.45,887.69.52,856,0,840.87a24.72,24.72,0,0,1,4.74-15.38c8.88-12.15,27.36-38,34.78-52.87,9.92-19.85,9.92-29.78,9.92-29.78C79.22,633.68,99.07,574.14,109,554.29s29.77-39.69,29.77-39.69c9.93-39.7,49.62-138.94,49.62-138.94s9.93-39.69,29.77-59.54a171.24,171.24,0,0,1,39.7-29.77l59.54-19.85C347.16,256.58,372,231,372,231s4-11,1-18c-9.16-21.39-7.18-33.56-10.68-57.61-.81-5.51-1.25,1.31-5.32-1.39-12-8-17-60-7-55,3.38,1.68,4,3.31,4,2,0-19.85.35-48.52,22-77C395-1,436,0,436,0"/></g></g></svg>