<svg xmlns="http://www.w3.org/2000/svg" viewBox="0 0 596 1685.79"><defs><style>.cls-1{fill:#bce0fd;}</style></defs><g id="Layer_2" data-name="Layer 2"><g id="people-whole"><path class="cls-1" d="M298,0h0c20.82,0,41.64,6.91,53,20.74,14.62,17.81,21,36,21,69,0,7.22-2.14,11.57,3,9,6-3,8,10-2,35-3.29,8.25-6,9-6,9-.36,9.77-7.66,30.9-13,38-9,12-11,13.12-11,13-1,9,3,31,6,33,5.89,3.92,8.84,10.73,58.46,30.58,20.6,8.24,56.93,42.7,79.39,59.54,39.69,29.77,29.77,119.08,29.77,119.08s9.92,69.47,9.92,119.09a416.38,416.38,0,0,1,19.85,49.62c22,65.9,29.77,178.63,29.77,208.4,0,0,0,29.77,9.92,49.62S596,932.13,596,932.13a226,226,0,0,1-9.93,59.55c-2.43,8-9.92,19.84-19.84,29.77-4.13,4.13-6.54,6.1-9.93,9.92h-9.92s-9.92,0-9.92-9.92,19.84-39.7,19.84-39.7l-4.3-32s-17-25-20-50c-1.18-9.87,4.46-56.92,4.46-56.92l-19.85-69.47s-39.7-59.54-49.62-129c-3.06-21.41-9.92-49.62-9.92-69.46,0-14.87-13.22-27.19-19.85-49.62-7.37-24.92-8.3-59.73-9.93-69.47v39.7c0,29.77-9.92,49.62-9.92,79.39,0,31.38,9.62,71.09,9.62,100.86,0,28.53,20.15,97.61,20.15,117.46,0,59.54,9.93,119.09,9.93,168.7,0,45.45,9.92,109.17,0,138.94-6.28,18.83-9.93,59.54-9.93,79.39s29.77,119.08,29.77,188.55c0,31.38-19.84,129-19.84,238.17,0,19.85-55.08,50.23-55.08,45.79v-9c-1.24-4.44-2.39-10.52-1.53-15.06l4.52-23.94-7.47-97s-9.92-59.54-19.84-89.31-9.93-129-9.93-148.86S347.9,1229.85,338,1150.46c-4.92-39.39-19.85-109.17-19.85-109.17L304.4,915.83a2.5,2.5,0,0,0-2.73-2.31l-3.79-.55"/><path class="cls-1" d="M402,1652.74c2.41,9.4,7.34,34.3,22,33,15.24-1.34,22-6,31-16,15.1-16.77,45-66,45-66s4-17-1-29c-4.63-11.11-23-26-34-24S402,1597.74,402,1652.74Z"/><path class="cls-1" d="M298,0h0c-20.82,0-41.65,6.91-53,20.74-14.62,17.81-21,36-21,69,0,7.22,2.15,11.57-3,9-6-3-8,10,2,35,3.3,8.25,6,9,6,9,.37,9.77,7.67,30.9,13,38,9,12,11,13.12,11,13,1,9-3,31-6,33-5.88,3.92-8.83,10.73-58.45,30.58-20.6,8.24-56.93,42.7-79.39,59.54C69.47,346.63,79.39,435.94,79.39,435.94S69.47,505.41,69.47,555a416.38,416.38,0,0,0-19.85,49.62c-22,65.9-29.77,178.63-29.77,208.4,0,0,0,29.77-9.93,49.62S0,932.13,0,932.13a226.25,226.25,0,0,0,9.92,59.55c2.44,8,9.93,19.84,19.85,29.77,4.13,4.13,6.54,6.1,9.93,9.92h9.92s9.92,0,9.92-9.92-19.84-39.7-19.84-39.7l4.3-32s17-25,20-50c1.18-9.87-4.46-56.92-4.46-56.92l19.85-69.47s39.7-59.54,49.62-129c3.06-21.41,9.92-49.62,9.92-69.46,0-14.87,13.22-27.19,19.85-49.62,7.37-24.92,8.3-59.73,9.92-69.47v39.7c0,29.77,9.93,49.62,9.93,79.39,0,31.38-9.63,71.09-9.63,100.86,0,28.53-20.14,97.61-20.14,117.46,0,59.54-9.93,119.09-9.93,168.7,0,45.45-9.92,109.17,0,138.94,6.28,18.83,9.93,59.54,9.93,79.39s-29.77,119.08-29.77,188.55c0,31.38,19.84,129,19.84,238.17,0,19.85,55.07,50.23,55.07,45.79v-9c1.24-4.44,2.39-10.52,1.53-15.06-2-10.6-4.53-23.94-4.53-23.94l7.48-97s9.92-59.54,19.84-89.31,9.93-129,9.93-148.86,19.84-39.69,29.77-119.08c4.92-39.39,19.85-109.17,19.85-109.17l13.72-125.46a2.51,2.51,0,0,1,2.74-2.31l3.79-.55"/><path class="cls-1" d="M194,1652.74c-2.4,9.4-7.33,34.3-22,33-15.24-1.34-22-6-31-16-15.1-16.77-45-66-45-66s-4-17,1-29c4.63-11.11,23-26,34-24S194,1597.74,194,1652.74Z"/></g></g></svg>