<svg xmlns="http://www.w3.org/2000/svg" viewBox="0 0 872 1635.31"><defs><style>.cls-1{fill:#bce0fd;}</style></defs><g id="Layer_2" data-name="Layer 2"><g id="people-whole"><path class="cls-1" d="M436,962c2.55.22,1.28-.12,3.83-.34L441,981s14.38,129,14.38,168.71,9.92,49.62,9.92,69.47,0,119.08,9.92,148.85,29.77,129,29.77,129v69.47s-1,31.56-1,41.49c0,5,11.35,21.61,21.52,24.88a48.82,48.82,0,0,0,45.67-8.18c4.9-4,8-20.86,9.81-26.7,4.55-15-16.46-51.34-16.46-71.19s9.92-69.46,19.84-99.24,19.85-119.08,9.93-168.7-9.93-49.62-9.93-69.47V1120c0-19.85,54.13-113.66,59.55-158.78,5.29-44.11,9.92-138.94,0-178.63-7.22-28.88,0-31,0-59.54,0-29.77,0-59.55-9.93-89.32s-19.84-69.46-9.92-89.31S634,494.75,634,494.75c9.93,79.39,29.77,89.31,39.7,119.09s53.24,92.26,53.24,92.26l49.62,69.47s6.21,32.89,6.34,44.84c.11,10.37,39.65,64.44,39.65,64.44v16.77s-19.84,29.78-19.84,39.7,9.92,9.92,9.92,9.92h9.92c3.39-3.81,15.72-5.79,19.85-9.92,9.93-9.92,17.41-21.81,19.85-29.77,7.3-23.86,9.23-55.59,9.74-70.69a24.59,24.59,0,0,0-4.73-15.36c-8.88-12.16-27.37-38.06-34.78-52.88-9.93-19.85-9.93-29.78-9.93-29.78C792.78,633.68,772.94,574.14,763,554.29s-29.77-39.69-29.77-39.69c-9.92-39.7-49.62-138.94-49.62-138.94S673.7,336,653.85,316.12a171.31,171.31,0,0,0-39.69-29.77L554.61,266.5C524.84,256.58,500,231,500,231s-4-11-1-18c9.17-21.39,7.18-33.56,10.69-57.61.8-5.51,1.25,1.31,5.31-1.39,12-8,17-60,7-55-3.38,1.68-4,3.31-4,2,0-19.85-.35-48.52-22-77C477-1,436,0,436,0"/><path class="cls-1" d="M563,1515c21-4,42,35,42,49,0,17.35-36.82,62.71-36.82,62.71l-42.32-68.53S547.36,1518,563,1515Z"/><path class="cls-1" d="M436,962c-2.55.22-1.28-.12-3.83-.34L431,981s-14.37,129-14.37,168.71-9.92,49.62-9.92,69.47,0,119.08-9.93,148.85-29.77,129-29.77,129v69.47s1,31.56,1,41.49c0,5-11.35,21.61-21.52,24.88a48.8,48.8,0,0,1-45.66-8.18c-4.9-4-8.05-20.86-9.82-26.7-4.55-15,16.47-51.34,16.47-71.19s-9.93-69.46-19.85-99.24-19.85-119.08-9.92-168.7,9.92-49.62,9.92-69.47V1120c0-19.85-54.13-113.66-59.54-158.78-5.29-44.11-9.93-138.94,0-178.63,7.22-28.88,0-31,0-59.54,0-29.77,0-59.55,9.92-89.32s19.85-69.46,9.93-89.31S238,494.75,238,494.75c-9.92,79.39-29.77,89.31-39.69,119.09s-53.25,92.26-53.25,92.26L95.44,775.57s-6.2,32.89-6.33,44.84c-.12,10.37-39.66,64.44-39.66,64.44v16.77S69.3,931.4,69.3,941.32s-9.93,9.92-9.93,9.92H49.45c-3.38-3.81-15.72-5.79-19.85-9.92-9.92-9.92-17.41-21.81-19.85-29.77C2.45,887.69.52,856,0,840.86A24.6,24.6,0,0,1,4.75,825.5c8.88-12.16,27.36-38.06,34.78-52.88,9.92-19.85,9.92-29.78,9.92-29.78C79.22,633.68,99.07,574.14,109,554.29s29.77-39.69,29.77-39.69c9.93-39.7,49.62-138.94,49.62-138.94s9.93-39.69,29.77-59.54a171.24,171.24,0,0,1,39.7-29.77l59.54-19.85C347.16,256.58,372,231,372,231s4-11,1-18c-9.16-21.39-7.18-33.56-10.68-57.61-.81-5.51-1.25,1.31-5.32-1.39-12-8-17-60-7-55,3.38,1.68,4,3.31,4,2,0-19.85.35-48.52,22-77C395-1,436,0,436,0"/><path class="cls-1" d="M309,1515c-21-4-42,35-42,49,0,17.35,36.83,62.71,36.83,62.71l42.31-68.53S324.65,1518,309,1515Z"/></g></g></svg>