<svg xmlns="http://www.w3.org/2000/svg" viewBox="0 0 596 1718.59"><defs><style>.cls-1{fill:#bce0fd;}</style></defs><g id="Layer_2" data-name="Layer 2"><g id="people-whole"><path class="cls-1" d="M287.59,914.85l-9.72,126.44s-14.93,69.78-19.85,109.17c-9.93,79.39-29.77,99.23-29.77,119.08s0,119.09-9.93,148.86-19.84,89.31-19.84,89.31l-7.48,97a216.09,216.09,0,0,1,6.53,23.94,30,30,0,0,1-.62,13.66l-2.91,10.4c0,4.44,2.77,21.53,0,25-3.81,4.79-9.48,16.66-15.37,28.45-9.93,19.84-49.62,9.92-59.54,9.92s-29.78-9.92-29.78-9.92-6.31-12.45,0-19.85,29.78-39.7,29.78-39.7,19.84-19.84,19.84-39.69c0-109.16-19.84-206.79-19.84-238.17,0-69.47,29.77-168.71,29.77-188.55s-3.65-60.56-9.93-79.39c-9.92-29.77,0-93.49,0-138.94,0-49.61,9.93-109.16,9.93-168.7,0-19.85,20.14-88.93,20.14-117.46,0-29.77,9.63-69.48,9.63-100.86,0-29.77-9.93-49.62-9.93-79.39v-39.7c-1.62,9.74-2.55,44.55-9.92,69.47-6.63,22.43-19.85,34.75-19.85,49.62,0,19.84-6.86,48-9.92,69.46-9.92,69.47-49.62,129-49.62,129L59.54,842.82s9.29,49.62,9.93,59.54,0,49.62-9.93,49.62-7.83-14.51-9-27.83c-1-11.32-1-11.86-1-11.86l-9.92,9.92v59.54s19.84,29.77,19.84,39.7-9.92,9.92-9.92,9.92H39.7c-3.39-3.82-5.8-5.79-9.93-9.92-9.92-9.93-17.41-21.81-19.85-29.77A226.25,226.25,0,0,1,0,932.13s0-49.62,9.92-69.46,9.93-49.62,9.93-49.62c0-29.77,7.8-142.5,29.77-208.4A416.38,416.38,0,0,1,69.47,555c0-49.62,9.92-119.09,9.92-119.09s-9.92-89.31,29.77-119.08c22.46-16.84,58.79-51.3,79.39-59.54,49.62-19.85,52.57-26.66,58.45-30.58,3-2,7-24,6-33,0,.12-2-1-11-13-5.33-7.1-12.63-28.23-13-38,0,0-2.7-.75-6-9-10-25-8-38-2-35,5.15,2.57,3-1.78,3-9,0-33,6.38-51.19,21-69C256.35,6.91,277.18,0,298,0h0c20.82,0,41.65,6.91,53,20.74,14.62,17.81,21,36,21,69,0,7.22-2.15,11.57,3,9,6-3,8,10-2,35-3.3,8.25-6,9-6,9-.36,9.77-7.67,30.9-13,38-9,12-11,13.12-11,13-1,9,3,31,6,33,5.88,3.92,8.83,10.73,58.45,30.58,20.6,8.24,56.94,42.7,79.39,59.54,39.7,29.77,29.77,119.08,29.77,119.08s9.93,69.47,9.93,119.09a417.54,417.54,0,0,1,19.84,49.62c22,65.9,29.77,178.63,29.77,208.4,0,0,0,29.77,9.93,49.62S596,932.13,596,932.13a226.25,226.25,0,0,1-9.92,59.55c-2.44,8-9.93,19.84-19.85,29.77-4.13,4.13-6.54,6.1-9.92,9.92h-9.93s-9.92,0-9.92-9.92,19.85-39.7,19.85-39.7V922.21l-9.93-9.92s0,.54-1,11.86c-1.13,13.32,1,27.83-9,27.83s-10.56-39.69-9.92-49.62,9.92-59.54,9.92-59.54l-19.85-69.47s-39.69-59.54-49.62-129c-3.06-21.41-9.92-49.62-9.92-69.46,0-14.87-13.22-27.19-19.85-49.62-7.37-24.92-8.3-59.73-9.92-69.47v39.7c0,29.77-9.93,49.62-9.93,79.39,0,31.38,9.63,71.09,9.63,100.86,0,28.53,20.15,97.61,20.15,117.46,0,59.54,9.92,119.09,9.92,168.7,0,45.45,9.92,109.17,0,138.94-6.28,18.83-9.92,59.54-9.92,79.39s29.77,119.08,29.77,188.55c0,31.38-19.85,129-19.85,238.17,0,19.85,19.85,39.69,19.85,39.69s23.33,32.15,29.77,39.7,0,19.85,0,19.85-19.85,9.92-29.77,9.92-49.62,9.92-59.55-9.92c-5.89-11.79-11.56-23.66-15.37-28.45-2.77-3.47,0-20.56,0-25l-2.9-10.4a29.9,29.9,0,0,1-.63-13.66,216.09,216.09,0,0,1,6.53-23.94l-7.47-97s-9.93-59.54-19.85-89.31-9.93-129-9.93-148.86-19.84-39.69-29.77-119.08c-4.92-39.39-19.84-109.17-19.84-109.17l-9.73-126.46a2.51,2.51,0,0,0-2.74-2.31l-4.79.45a34.6,34.6,0,0,1-6.75,0l-3.78-.39A2.51,2.51,0,0,0,287.59,914.85Z"/></g></g></svg>