<svg xmlns="http://www.w3.org/2000/svg" viewBox="0 0 636.43 1727.86"><defs><style>.cls-1{fill:#bce0fd;}</style></defs><g id="Layer_2" data-name="Layer 2"><g id="people-whole"><path class="cls-1" d="M318,0s40.56-1.44,60.41,28.33,19.85,59.54,19.85,79.39c0,3.91.74.28,4.74,3.28,3.69,2.77,1,15.66-2,26-4,14-5.45,6.53-7.35,9.75-2.57,4.35-4.1,10.31-4.85,23.3-.8,13.95-7.91,22-10.39,27-4.33,8.67,9.27,28.81,9.9,29.74l0,.06c.46.88,11,20.28,59.53,39.67,20.6,8.24,56.93,32.78,79.39,49.62,39.23,29.42,30,117,29.77,119.05v.08c0,1.63.17,50.21,9.91,89.22l0,.09c.87,2.35,39.68,107,39.68,129,0,69.46,9.92,129,9.92,158.78,0,0,0,29.77,9.93,49.62s9.92,69.46,9.92,69.46a226.15,226.15,0,0,1-9.92,59.54c-2.44,8-9.93,19.85-19.85,29.78-4,4-6.42,6-9.67,9.64a.88.88,0,0,1-.63.28h-9.55s-9.92,0-9.92-9.92c0-9.45,18-36.87,19.71-39.5a.79.79,0,0,0,.13-.45V951.33a.86.86,0,0,0,0-.16L591,922.49l-2.67-13.39a.83.83,0,0,0-1.65.14c-.13,3.91-.37,9-.81,14.18-1.13,13.32,1,27.83-9,27.83s-10.56-39.7-9.93-49.62c.61-9.55,9.25-55.89,9.89-59.34a.82.82,0,0,0,0-.41L557,782.55s-29.77-79.39-39.7-109.17c-6.84-20.52-13.8-36.22-19.84-99.23-2.13-22.16-21.81-69.3-28.14-92.23a.83.83,0,0,0-1.63.22v92c0,31.38,9.92,69.46,9.92,99.23,0,28.53,8.35,81.86,8.35,111.63,0,69.47-3.06,161.83-8.35,205.93-5.41,45.13-8.65,90.07-9.92,119.09-.87,19.83,0,79.39,0,99.24S488,1300,487.57,1368.05c-.19,31.38-19.84,218.32-19.84,238.17,0,15,8.74,38.81,13,48a28.85,28.85,0,0,0,5.65,8.17c6.07,6.18,28.68,26.07,33.63,31.58,6.39,7.11-.41,18.09-1,19a.61.61,0,0,1-.07.1c-.78.82-11.82,12.32-21.39,12.32-9.92,0-49.62,9.92-59.54-9.92-5.76-11.53-21.52-29.7-25.34-34.54a20.93,20.93,0,0,1-4.51-13,.25.25,0,0,1,0-.08l1.8-26.72a.8.8,0,0,0,0-.31c-4.07-12.38-2-25.67-.37-32.74a35,35,0,0,0,.69-11.76l-12-109.23s-3.26-25.12-9.92-69.46c-4.67-31-9.93-119.09-9.93-138.94s-19.85-49.61-29.77-129c-4.92-39.39-9.33-79.23-11.64-105.72s-9.37-103.47-10.14-111.86a.83.83,0,0,0-.83-.75l-5.54.45a27,27,0,0,1-4.12,0l-6-.46a.83.83,0,0,0-.83.75c-.77,8.39-7.83,85.29-10.14,111.86s-6.72,66.33-11.64,105.72c-9.92,79.39-29.77,109.16-29.77,129s-5.26,107.9-9.93,138.94c-6.66,44.34-9.92,69.46-9.92,69.46l-12,109.23a35,35,0,0,0,.69,11.76c1.66,7.07,3.7,20.36-.37,32.74a.8.8,0,0,0,0,.31l1.8,26.72a.25.25,0,0,1,0,.08,20.93,20.93,0,0,1-4.51,13c-3.82,4.84-19.58,23-25.34,34.54-9.92,19.84-49.62,9.92-59.54,9.92-9.57,0-20.61-11.5-21.39-12.32a.61.61,0,0,1-.07-.1c-.56-.86-7.36-11.84-1-19,4.95-5.51,27.56-25.4,33.63-31.58a28.85,28.85,0,0,0,5.65-8.17c4.25-9.23,13-33,13-48,0-19.85-19.65-206.79-19.84-238.17-.43-68,19.84-138.93,19.84-158.78s.87-79.41,0-99.24c-1.27-29-4.51-74-9.92-119.09-5.29-44.1-8.35-136.46-8.35-205.93,0-29.77,8.35-83.1,8.35-111.63,0-29.77,9.92-67.85,9.92-99.23v-92a.83.83,0,0,0-1.63-.22c-6.33,22.93-26,70.07-28.14,92.23-6,63-13,78.71-19.84,99.23-9.93,29.78-39.7,109.17-39.7,109.17L59.61,841.88a.82.82,0,0,0,0,.41c.64,3.45,9.28,49.79,9.89,59.34.63,9.92,0,49.62-9.93,49.62s-7.83-14.51-9-27.83c-.44-5.22-.68-10.27-.81-14.18a.83.83,0,0,0-1.65-.14l-2.67,13.39-5.74,28.68a.86.86,0,0,0,0,.16v29.44a.79.79,0,0,0,.13.45c1.73,2.63,19.71,30,19.71,39.5,0,9.92-9.92,9.92-9.92,9.92H40.07a.88.88,0,0,1-.63-.28c-3.25-3.64-5.64-5.62-9.67-9.64-9.92-9.93-17.41-21.81-19.85-29.78A226.15,226.15,0,0,1,0,931.4s0-49.62,9.92-69.46,9.93-49.62,9.93-49.62c0-29.77,9.92-89.32,9.92-158.78,0-21.94,38.81-126.62,39.68-129l0-.09c9.74-39,9.91-87.59,9.91-89.22v-.08c-.23-2.06-9.46-89.63,29.77-119,22.46-16.84,58.79-41.38,79.39-49.62,48.49-19.39,59.07-38.79,59.53-39.67a.21.21,0,0,1,0-.06c.63-.93,14.23-21.07,9.9-29.74-2.48-5-9.59-13-10.39-27-.75-13-2.28-18.95-4.85-23.3-1.9-3.22-3.35,4.25-7.35-9.75-3-10.34-5.69-23.23-2-26,4-3,4.74.63,4.74-3.28,0-19.85,0-49.62,19.85-79.39S318.43,0,318.43,0"/></g></g></svg>