<svg xmlns="http://www.w3.org/2000/svg" xmlns:xlink="http://www.w3.org/1999/xlink" viewBox="0 0 1125 1566"><defs><style>.cls-1,.cls-26,.cls-27,.cls-28,.cls-30,.cls-31{fill:none;}.cls-2{fill:#687068;}.cls-3{fill:#949a90;}.cls-4{fill:#231f20;}.cls-5{fill:#59393e;}.cls-6{fill:#37322b;}.cls-7{fill:#704825;}.cls-8{fill:#d5d5c4;}.cls-9{fill:#876142;}.cls-10{fill:#543517;}.cls-11{fill:#685c79;}.cls-12{isolation:isolate;}.cls-13{fill:#f2464f;}.cls-13,.cls-14,.cls-17,.cls-19,.cls-20,.cls-28{stroke:#f1f9ff;}.cls-13,.cls-14,.cls-16,.cls-17,.cls-19,.cls-20,.cls-21,.cls-26,.cls-27,.cls-28,.cls-30,.cls-31{stroke-miterlimit:10;}.cls-13,.cls-14,.cls-15,.cls-17,.cls-24{opacity:0.3;}.cls-13,.cls-14,.cls-15,.cls-17{mix-blend-mode:multiply;}.cls-14,.cls-15{fill:#f19181;}.cls-16{fill:#e8f8ff;stroke:#2699fb;stroke-width:0.5px;}.cls-17,.cls-19,.cls-20{fill:#2699fb;}.cls-18{opacity:0.8;}.cls-19,.cls-21,.cls-28{opacity:0.6;}.cls-20,.cls-23{opacity:0.7;}.cls-21{fill:#f3f5c4;stroke:#f6be86;}.cls-22{opacity:0.2;fill:url(#Unnamed_Pattern_2);}.cls-23,.cls-24{fill:#ac6c82;}.cls-25{opacity:0.1;mix-blend-mode:difference;fill:url(#Turtle);}.cls-26,.cls-27,.cls-30,.cls-31{stroke:#fff;}.cls-26{opacity:0.65;}.cls-27,.cls-29,.cls-32{opacity:0.25;}.cls-31{opacity:0.9;}.cls-32{fill:#3a2ba3;}.cls-33{font-size:37px;fill:#606060;font-family:Roboto-Regular, Roboto;}.cls-34{letter-spacing:0.01em;}.cls-35{letter-spacing:-0.02em;}</style><pattern id="Unnamed_Pattern_2" data-name="Unnamed Pattern 2" width="79" height="79" patternTransform="translate(54.12 27)" patternUnits="userSpaceOnUse" viewBox="0 0 79 79"><rect class="cls-1" width="79" height="79"/><rect class="cls-11" width="79" height="79"/></pattern><pattern id="Turtle" data-name="Turtle" width="72.66" height="72.07" patternTransform="translate(217.66 6)" patternUnits="userSpaceOnUse" viewBox="0 0 72.66 72.07"><rect class="cls-1" width="72.66" height="72.07"/><path class="cls-2" d="M22.33,70.64l2.5,8.66L25,80.63l1,1.67-.66,1.17L25,84.8l-.66,1-1.89,1.64-2,4.83.55,0,1.17,2.83,1.5,2,2.5,2.67-.17,2v1.83l-1.5-3.83-2-3-2.16-4.33L22,87l1.34-2,2-2.5-1.5-3.17S21.83,71.8,22.33,70.64Z"/><path class="cls-3" d="M21.83,70.3,24.33,79l.16,1.33,1,1.67-.66,1.17-.34,1.33-.66,1-1,.83-2,4.84-.34.83,1.17,2.83,1.5,2,2.5,2.67-.17,2v1.83L24,99.47l-2-3-2.16-4.33,1.66-5.5,1.34-2,2-2.5L23.33,79S21.33,71.47,21.83,70.3Z"/><path class="cls-4" d="M36.49,79.39c-2.89,0-8.79,1.92-10.47,2.53L22.83,69.64l14.16-5,13.25,4.5L47.73,81.31S40.78,79.35,36.49,79.39Z"/><path class="cls-5" d="M23.45,69.94c.27.82,3.1,9.44,3.37,10.25a48.54,48.54,0,0,1,9.73-1.55A61.53,61.53,0,0,1,46.88,80c.2-.79,2.55-9.72,2.76-10.52L37,65.17Z"/><path class="cls-6" d="M33.85,67s-9.67,3-10,3.12c.11.35,3.35,8.9,3.45,9.22a49.84,49.84,0,0,1,9.2-1.17c3.38,0,8.13,1.2,10.1,1.53.08-.33,2.13-9.47,2.22-9.81C48.46,69.8,37.16,65.35,37,65.3S33.85,67,33.85,67Z"/><path class="cls-7" d="M34,67.3l-9.24,3.26L27.48,79a51.12,51.12,0,0,1,9-.91,68.7,68.7,0,0,1,9.62.74c.2-.76,2.09-8,2.3-8.73L37,66.22Z"/><path class="cls-8" d="M34.11,67.77h0l-8.77,3.1c.26.79,1.82,6.85,2.48,7.56a51,51,0,0,1,8.66-1,61.83,61.83,0,0,1,9.29.89c.2-.77,1.94-7.36,2.07-7.85L37,67C36.71,67.07,34.11,67.77,34.11,67.77Z"/><path class="cls-6" d="M34.18,68l-8.59,3c.11.35,2.28,6.94,2.37,7.22a49,49,0,0,1,8.52-.82,59.72,59.72,0,0,1,9.14.67c.09-.33,1.89-7.16,2-7.5L37,67Z"/><path class="cls-7" d="M34.28,68.24,26,71.18l2.2,6.68a51.85,51.85,0,0,1,8.31-1,59.72,59.72,0,0,1,8.93.83c.19-.73,1.64-6.21,1.83-7L37,67.28Z"/><path class="cls-9" d="M34.45,68.72l-7.86,2.77c.25.75,1.69,5.13,1.91,5.81a49.9,49.9,0,0,1,8-.91,55.86,55.86,0,0,1,8.56.77l1.6-6.08c-3.05-.36-9.2-3.13-9.62-3.27Z"/><path class="cls-8" d="M34.78,69.66,27.85,72.1l1.33,4.07a49.58,49.58,0,0,1,7.28-.78,54.62,54.62,0,0,1,7.83.66c.17-.63,1-3.76,1.14-4.32L37,68.87Z"/><path class="cls-6" d="M34.84,69.85h0L28.1,72.23l1.22,3.71a51.06,51.06,0,0,1,7.14-.75,53.79,53.79,0,0,1,7.68.64c.08-.3,1-4,1-4.28L37,69.08Z"/><path class="cls-4" d="M34.94,70.13h0l-6.46,2.28c.18.58.88,2.7,1,3.2a49.21,49.21,0,0,1,6.94-.72,54.22,54.22,0,0,1,7.46.61l.9-3.45L37,69.4Z"/><path class="cls-7" d="M35.11,70.6h0l-6,2.12c.09.26.59,1.79.77,2.33a48.24,48.24,0,0,1,6.58-.66,53.1,53.1,0,0,1,7.09.57c.12-.47.55-2.08.68-2.59L37,69.93Z"/><path class="cls-4" d="M57.78,71.2s3.45-2.78,4.45-2.45S71.51,70,71.51,70l.67,3v4L68,78.3l-2.66.34-1-3Z"/><path class="cls-7" d="M59,71.42s2.77-1.82,3.55-1.56,8,.92,8,.92L71,73.12v3.11l-3.38,1-2.08.26-.52-2.6Z"/><path class="cls-8" d="M60.59,72.13s4.38-1.74,5-1.53,4.17.81,4.17.81l.4,1.82v2.43l-2.74.81-1.63.21-.4-2Z"/><path class="cls-4" d="M61.28,72.49s3.83-2,4.3-1.89,3.56,1.3,3.56,1.3l.32,1.42v1.9l-2.26.63L65.94,76l-.32-1.58Z"/><path class="cls-7" d="M61.82,72.77s3.68-1.63,4.05-1.51,2.29,1,2.29,1l.76,1.11v1.48l-1.87.49-1,.12-.25-1.23Z"/><path class="cls-4" d="M11.49,71S8.83,68.3,7.83,68.64s-6,1.33-6,1.33l-.67,3L.49,79.54l3.67,1.33,2.66.33.67-3.33Z"/><path class="cls-7" d="M10.35,71.56S8.28,69.48,7.5,69.74s-4.68,1-4.68,1L2.3,73.12,1.63,78.8l2.86,1,2.08.26.52-2.6Z"/><path class="cls-8" d="M9.47,72S7.85,70.39,7.24,70.6s-3.65.81-3.65.81l-.41,1.82-.67,5L4.74,79l1.63.2,1.07-4.59Z"/><path class="cls-4" d="M8.77,72.37S7.71,70.44,7.24,70.6s-3,1.3-3,1.3l-.31,1.42-.67,4.46L5,78.41l1.26.16,1-4.14Z"/><path class="cls-7" d="M8.23,72.65S7.32,71.14,7,71.26s-2.29,1-2.29,1l-.24,1.11v1.48l.68,3.06,1,.12L7,74.25Z"/><path class="cls-4" d="M50,69.05,44.08,72l-2.67-.33-.5-.75a4.2,4.2,0,0,0-1-.25c-.33,0-1.5.16-1.5.16l-.67.25L37.08,71,37,64.64l-.66,6.08-.75.25h-.92l-.92-.17L33,72.14l-1.75.58L29,72.22l-5.83-2.58,5.58,3.25a5.82,5.82,0,0,0,1,1,8.89,8.89,0,0,0,1.59-.09l-.59,1.84-1.56.53L26.83,80l2.66-3.33,3-.84,1.92-.33,1.17.08.88.34.62.58L37,78.72l.5-2.25,1.92-.5,1.5-.33,1.75.91,4.5,3.67-4.08-4.58-.09-2-.25-.84s1,.17,1.25,0Z"/><path class="cls-8" d="M36.62,71.73l-1.79.9-.41,1.51,2,1.06,2.38-1.06-.42-1.66A18.45,18.45,0,0,1,36.62,71.73Z"/><path class="cls-7" d="M36.62,72,35,72.76,34.62,74l1.83,1.19L38.62,74l-.38-1.37S37.12,72.26,36.62,72Z"/><polygon class="cls-2" points="50.82 70.17 49.99 73.14 50.49 74.8 50.13 75.32 49.32 76.47 48.16 78.97 50.16 76.97 51.16 74.47 50.82 70.17"/><polygon class="cls-3" points="51.65 68.1 50.16 72.47 50.66 74.14 50.3 74.65 49.49 75.8 48.33 78.3 50.33 76.3 50.96 72.38 51.65 68.1"/><polygon class="cls-2" points="9.99 61.97 11.49 64.8 11.82 66.97 13.66 67.64 13.82 69.14 14.16 71.14 13.82 72.47 9.68 76.89 7.23 82.69 9.01 75.89 12.82 71.64 12.49 68.97 11.32 67.8 10.82 64.8 9.99 61.97"/><path class="cls-4" d="M66.74,89.57h-12l-4.67-7.84,2.54-13c3-.16,8.8,6.55,9.63,7.89C62.24,76.57,67.41,89.07,66.74,89.57Z"/><path class="cls-7" d="M50.6,81.65,55,89.07H66.26c-.22-1.45-2.34-7.14-4.48-12.31-.79-1.25-6-7.3-8.77-7.54C52.84,70,50.68,81.29,50.6,81.65Z"/><path class="cls-8" d="M51.13,81.56l4.18,7H65.64C65.14,86.7,63.41,82,61.32,77c-.65-1-5.6-7.15-8.31-7.73C52.82,70.11,51.21,81.21,51.13,81.56Z"/><path class="cls-6" d="M51.49,81.48c.19.31,3.84,6.14,4.1,6.59.51,0,8.77.25,9.9.25-.65-2.17-2.79-6.71-4.63-11.18-.52-.79-5-6.7-7.58-7.54C53.08,70.55,51.57,81.13,51.49,81.48Z"/><path class="cls-7" d="M53.13,77s-.48,4.17-.56,4.52c.19.31,3,5.65,3.31,6.09h8.4c-.75-2.31-2.2-6.17-3.89-10.24-.4-.61-3.77-5.13-6.26-6.17C53.94,72.06,53.13,77,53.13,77Z"/><polygon class="cls-4" points="52.61 68.69 55.57 78.15 54.24 78.32 54.07 79.48 50.32 81.65 54.24 80.07 55.07 81.57 56.41 82.57 56.57 84.07 54.74 89.07 56.91 84.32 58.33 84.57 60.41 84.9 66.58 89.07 60.83 84.65 59.16 82.9 58.41 82.32 59.08 81.4 59.08 80.73 58.58 79.73 57.74 79.57 59.58 78.4 61.74 76.48 57.82 78.98 56.49 77.82 55.99 77.15 52.61 68.69"/><path class="cls-4" d="M5.73,90.91l13.05-.73,4.57-8.26L20.63,69.65c-3.27,0-10,6.35-10.86,7.76C9.77,77.41,5,90.45,5.73,90.91Z"/><path class="cls-7" d="M22.76,81.86l-4.32,7.83-12.22.68c.14-1.48,2.08-7.4,4.07-12.8.77-1.31,6.9-6.94,9.94-7.35C20.47,71,22.66,81.5,22.76,81.86Z"/><path class="cls-8" d="M22.18,81.8,18.1,89.19l-11.23.64A120.82,120.82,0,0,1,10.8,77.74c.64-1.07,6.52-6.77,9.43-7.52C20.5,71.11,22.08,81.45,22.18,81.8Z"/><path class="cls-6" d="M21.79,81.75c-.18.33-3.77,6.48-4,7-.55,0-9.52.8-10.75.86.57-2.24,2.59-7,4.31-11.65.5-.84,5.88-6.27,8.65-7.29C20.25,71.58,21.68,81.4,21.79,81.75Z"/><polygon class="cls-4" points="20.63 69.65 17.13 78.61 18.59 78.7 18.85 79.87 23.07 81.85 18.7 80.48 17.9 82.06 16.51 83.16 16.43 84.69 18.75 89.67 16.08 84.97 14.56 85.31 12.31 85.78 5.88 90.39 11.85 85.55 13.54 83.66 14.32 83.02 13.54 82.13 13.49 81.45 13.97 80.4 14.86 80.18 12.79 79.11 10.31 77.29 14.73 79.6 16.11 78.33 16.61 77.62 20.63 69.65"/><polygon class="cls-4" points="73.78 36.29 70.53 36.63 72.33 45.57 69.52 55.38 73.52 57.05 77.52 55.72 74.66 46.9 75.66 37.9 73.78 36.29"/><path class="cls-7" d="M71.05,37c0,.67,1.78,8.67,1.78,8.67s-2.37,8.66-2.67,9.46l3.38,1.4,3.27-1.09c-.43-.86-2.67-8.44-2.67-8.44s.91-8.35,1-8.87l-1.23-1C73.58,37.23,71.45,36.85,71.05,37Z"/><path class="cls-8" d="M71.57,37.34c0,.66,1.77,8.38,1.77,8.38S71.1,54,70.8,54.83L73.55,56l2.56-.85c-.43-.85-2.74-8.31-2.74-8.31.72-5.06.91-6.33,1.22-8.5l-.8-.63C73.56,37.77,71.86,37.24,71.57,37.34Z"/><path class="cls-4" d="M73.69,38.25c.15.11.22.17.36.29,0,.2-.18,3.29-.35,4.51-.08-1.37-1.6-5-1.61-5.36C72.16,37.67,73.63,38.27,73.69,38.25Zm-.46,9.15c.1.19,2.21,6.79,2.62,7.61-.33.11-2,.35-2.27.44-.25-.1-2.3-.42-2.78-.62C71,54.25,72.63,49,73.23,47.4Z"/><path class="cls-7" d="M73,49.48s-.68,4.2-.9,4.8l1.51.63,1.11-.36c-.31-.62-.8-5.8-1.33-6.86A15.7,15.7,0,0,0,73,49.48Z"/><polygon class="cls-4" points="67.61 8.9 71.61 7.57 78.51 10.29 76.61 17.23 73.28 17.57 69.94 17.57 68.94 12.57 67.61 8.9"/><path class="cls-7" d="M68.26,9.21l1.15,3.19c0,.06.71,3.51.94,4.67h2.93l2.81-.29c0-.79-.27-6.34-.3-6.88l-4.2-1.8Z"/><path class="cls-8" d="M68.26,9.21c.25.7,1.62,3,1.62,3s.66,3.23.88,4.34h2.52l0,0c.37-.08,1-.14,2.23-.27h.11c0-.78,2.48-5.18,2.46-5.71-.48-.2-6.17-1.86-6.46-2C71.29,8.73,68.92,9,68.26,9.21Z"/><path class="cls-4" d="M69.55,9.84c.23.65.8,2.21.8,2.21s0,.07.73,3.55a3,3,0,0,0-.32,1,19,19,0,0,0,2.52-.5l-.15.05,1.92-.23c0-.75,2.15-4.52,2.12-5-.46-.2-5.33-1.55-5.63-1.68Z"/><path class="cls-7" d="M70.19,10.15c.22.59.63,1.73.63,1.73s0,.11.75,3.62a.56.56,0,0,1,0,.07h1.7v0l1.25-.15c0-.72,1.1-3.54,1.08-4-.45-.2-3.81-1.58-4.09-1.7Z"/><path class="cls-4" d="M70.68,11.11l.5,1.13c0,.07,0,.07.58,2.35v.05H73.1v0l1-.1c0-.47-.14-2.63-.16-3l-2.2-.79Z"/><polygon class="cls-4" points="71.75 23.53 68.95 17.88 75.87 19.11 77.21 22.57 74.31 28.57 75.65 35.57 71.65 34.9 72.98 28.23 71.75 23.53"/><path class="cls-7" d="M72.24,23.42l1.25,4.8-1.25,6.27L75,35c-.22-1.14-1.22-6.41-1.22-6.41s2.55-5.59,2.63-5.87c-.07-.22-.82-2.78-1-3.15-.39-.09-4.94-.77-5.89-1C69.78,19.52,72.24,23.4,72.24,23.42Z"/><path class="cls-8" d="M70.23,19.2c.8.18,4.52.67,4.87.75.11.33.59,3,.66,3.17A20.92,20.92,0,0,0,73.7,27c-.33-1.28-1-3.72-1-3.74S70.4,20.07,70.23,19.2Zm3.38,11c.29,1.52,1.13,3.68,1.29,4.49-.6-.1-1.6-.53-2.07-.61C73,33.51,73.28,31.83,73.61,30.2Z"/><path class="cls-4" d="M71.18,19.78c.56.12,3.27.54,3.53.6,0,.05-.36,2-.3,2.23S74,25.83,73.7,27c-.18-.7-.48-3.82-.49-3.85A23.29,23.29,0,0,1,71.18,19.78Zm2.59,10.91c.06.31,1,3.59,1.13,4-.18,0-1.32-1-1.48-1l.08-.38S73.75,30.82,73.77,30.69Z"/><polygon class="cls-2" points="74.53 66.33 72.36 67.49 70.53 68.49 68.53 67.83 66.69 67.33 64.86 67.16 63.69 66.66 61.86 67.66 58.52 70.83 62.86 68.16 63.86 67.49 66.03 67.99 67.53 68.33 70.36 68.99 72.36 69.16 74.53 66.33"/><rect class="cls-8" width="72.66" height="72.07"/><path class="cls-2" d="M52.3,15.86l1.79,2.62.71,1,.66.34L56.8,20l1.66-.66a20.77,20.77,0,0,0,2.17.33c.5,0,4.33.17,4.33.17l2,.5-1.16.5L64,20.36H59.63l-1.83-.17-2.5.67L54,22,52.3,23.69l-1.17,3.17-2.33,2L46.46,29,43.3,28l-2.84-.5-5.83.67A9,9,0,0,1,37,26.86l2.34-.34,2,.17,2,.5,2.16.5,2,.33,1.5-.5,1.67-1,.83-2.16,1-1.84,1.17-1.83Z"/><path class="cls-3" d="M52,15.36,53.75,18l.71,1,.67.34,1.33.16,1.67-.66a20.48,20.48,0,0,0,2.16.33c.5,0,4.34.17,4.34.17l2,.5-1.17.5-1.83-.5H59.29l-1.83-.17-2.5.67-1.33,1.16L52,23.19l-1.17,3.17-2.33,2-2.33.16-3.17-1L40.13,27l-5.83.67a8.87,8.87,0,0,1,2.33-1.33L39,26l2,.17,2,.5,2.17.5,2,.33,1.5-.5,1.66-1,.84-2.16,1-1.84,1.16-1.83Z"/><path class="cls-2" d="M22.33-1.43l2.5,8.66L25,8.57l1,1.66-.66,1.17L25,12.73l-.66,1-1.89,1.64-2,4.83.55,0,1.17,2.84,1.5,2,2.5,2.66-.17,2v1.84l-1.5-3.84-2-3L20.33,20.4,22,14.9l1.34-2,2-2.5-1.5-3.17S21.83-.27,22.33-1.43Z"/><path class="cls-3" d="M21.83-1.77l2.5,8.67.16,1.33,1,1.67-.66,1.17-.34,1.33-.66,1-1,.83-2,4.84-.34.83,1.17,2.83,1.5,2,2.5,2.67-.17,2v1.83L24,27.4l-2-3-2.16-4.33,1.66-5.5,1.34-2,2-2.5L23.33,6.9S21.33-.6,21.83-1.77Z"/><path class="cls-4" d="M25.11,12.37C29.24,10.82,32.74,9,36,8.94c3-.08,9.26,1.55,11.45,2.38l5.5,7.5-4.8,9.1a43,43,0,0,0-9.87-1.52c-4.25,0-11.3.89-13.19,2.62l-4.27-9.15Z"/><path class="cls-5" d="M36.26,10.07h0a37.12,37.12,0,0,0-7.8,1.41L26.32,12c-.19.35-3.74,6.61-4,7.06l4.52,7.68c2-1,7.89-1.42,11.46-1.42a40.89,40.89,0,0,1,9.22,1.16l4.87-7.64c-.37-.51-4.72-7.28-4.9-7.52C45.3,10.54,39.2,10,36.26,10.07Z"/><path class="cls-7" d="M36.27,10.57A36.86,36.86,0,0,0,28.59,12l-1.94.48c-.19.34-4.07,6.17-4.33,6.62.26.45,4.36,6.42,4.74,7.06,2.42-1,8-1.3,11.24-1.3a39.8,39.8,0,0,1,9,1.09l4.49-7c-.35-.48-4.41-6.87-4.59-7.11C44.94,11,39.09,10.49,36.27,10.57Z"/><path class="cls-8" d="M36.28,11.07h0a36.2,36.2,0,0,0-7.57,1.38L27,12.87c-.13.23-3.24,5.72-3.51,6.18l3.81,6.47a43.51,43.51,0,0,1,11-1.77,34.71,34.71,0,0,1,8.77,1.58c.34-.53,4.39-6,4.71-6.47-.33-.46-5-6-5.2-6.26A41.63,41.63,0,0,0,36.28,11.07Z"/><path class="cls-6" d="M37.87,11.19l-2.32.13c-2.31.06-4.19,1-6.72,1.61l-1.52.37c-.2.34-3.31,5.26-3.57,5.7.25.43,3.46,5.4,3.78,5.93a45.05,45.05,0,0,1,10.72-1.36,37.29,37.29,0,0,1,8.6,1.19c.3-.47,4.34-5.45,4.65-5.94-.36-.49-5-5.53-5.22-5.78C44,12.32,40.48,11.12,37.87,11.19Z"/><path class="cls-7" d="M37.3,11.75l-1.06-.06c-2.26.06-4.78,1.09-7.29,1.73l-1.32.32-3,5.3,3.13,5.32a46.35,46.35,0,0,1,10.48-1.29A36.11,36.11,0,0,1,46.6,24.2L50,18.92c-.35-.49-3.79-5.18-4-5.44C43.64,12.78,39.81,11.69,37.3,11.75Z"/><path class="cls-4" d="M36.34,13.07h0a35.28,35.28,0,0,0-7.14,1.31,3.87,3.87,0,0,0-1.08-.13c-.19.33-2.09,4.35-2.34,4.78l2.48,4.21a49.59,49.59,0,0,1,10-1.17,35.79,35.79,0,0,1,7.88,1c.31-.49,3-3.85,3.19-4.15-.35-.47-3.74-4.32-3.93-4.58A38.74,38.74,0,0,0,36.34,13.07Z"/><path class="cls-6" d="M36.35,13.57h0a34.75,34.75,0,0,0-7,1.3h0l-.71.17-2.26,4,2.15,3.65a51.18,51.18,0,0,1,9.73-1.11,36.24,36.24,0,0,1,7.64,1L48.15,19,45.09,14.8A38.58,38.58,0,0,0,36.35,13.57Z"/><path class="cls-8" d="M37.12,14.57l-.88-.07a32.67,32.67,0,0,0-6.75,1.11l-.5.12-2,3.55c.23.39,1.55,2.63,1.82,3.1a52.83,52.83,0,0,1,9.49-1.05,36.29,36.29,0,0,1,7.4.92c.27-.44,1.61-2.55,1.9-3l-2.75-3.74A30.91,30.91,0,0,0,37.12,14.57Z"/><path class="cls-7" d="M36.38,14.57h0a34,34,0,0,0-6.81,1.27l-.29.07c-.18.31-1.53,2.7-1.77,3.11.24.41,1.38,3.05,1.42,3.11a68.21,68.21,0,0,1,9.31-1.56,41.67,41.67,0,0,1,7.31,1.18c.23-.36,1.14-2.35,1.39-2.73-.28-.37-2.25-3.06-2.44-3.33A36.89,36.89,0,0,0,36.38,14.57Z"/><polygon class="cls-2" points="9.74 39.07 11.37 39.82 13.74 39.82 16.12 39.19 18.24 38.57 20.87 38.94 22.37 40.44 22.74 42.69 24.24 43.32 24.87 45.94 25.24 49.57 27.12 47.57 27.99 46.94 30.99 46.44 34.74 46.07 36.37 45.32 38.12 45.19 35.87 44.82 34.24 45.57 32.37 45.57 30.62 45.57 27.74 45.82 26.12 46.82 25.99 45.44 24.87 42.94 23.87 42.19 22.24 39.07 21.49 37.94 18.99 37.82 16.49 38.32 14.74 39.19 12.12 39.32 9.74 39.07"/><polygon class="cls-3" points="9.74 38.57 11.37 39.32 13.74 39.32 16.12 38.69 18.24 38.07 20.87 38.44 22.37 39.94 22.74 42.19 24.24 42.82 24.87 45.44 25.24 49.07 27.12 47.07 27.99 46.44 30.99 45.94 34.74 45.57 36.37 44.82 38.12 44.69 35.87 44.32 34.24 45.07 32.37 45.07 30.62 45.07 27.74 45.32 26.12 46.32 25.99 44.94 24.87 42.44 23.87 41.69 22.24 38.57 21.49 37.44 18.99 37.32 16.49 37.82 14.74 38.69 12.12 38.82 9.74 38.57"/><polygon class="cls-2" points="69.49 22.32 71.12 25.94 71.74 28.57 70.49 33.57 70.91 35.11 72.38 35.92 70.24 36.57 68.74 37.69 66.37 38.19 63.87 38.32 61.37 37.82 58.62 38.57 56.37 38.44 54.99 38.32 53.49 37.32 52.99 35.82 51.87 34.82 50.62 31.57 50.74 29.82 51.49 31.19 51.87 33.07 53.12 35.19 54.24 37.07 56.62 37.94 59.49 37.69 60.99 37.44 63.87 37.82 66.99 37.69 68.37 36.69 69.87 36.32 70.12 33.94 71.37 28.82 70.12 25.32 69.49 22.32"/><polygon class="cls-3" points="68.99 22.07 70.62 25.69 71.24 28.32 69.99 33.32 71.05 35.99 69.74 36.32 68.24 37.44 65.87 37.94 63.37 38.07 60.87 37.57 58.12 38.32 55.87 38.19 54.49 38.07 52.99 37.07 52.49 35.57 51.37 34.57 50.12 31.32 50.24 29.57 50.99 30.94 51.37 32.82 52.62 34.94 53.74 36.82 56.12 37.69 58.99 37.44 60.49 37.19 63.37 37.57 66.49 37.44 67.87 36.44 69.37 36.07 69.98 35.44 69.62 33.69 70.87 28.57 69.62 25.07 68.99 22.07"/><path class="cls-4" d="M26.63,29.28c.87.16,6.19-.78,10.86-1,1.65-.07,7.72-.57,11.31.54l4.09,7.71-3.4,9.62a68.34,68.34,0,0,0-11.63-1.88,48.42,48.42,0,0,0-11.23,2s-3.8-9.32-3.8-9.72S26.63,29.28,26.63,29.28Z"/><path class="cls-5" d="M48.14,30.49,51,36.29l-2.85,8.43A58.51,58.51,0,0,0,37.5,43.07a41.31,41.31,0,0,0-9.9,1.47c-1.28-2.84-3.14-7.06-3.34-7.72.19-.55,1.72-3.53,3.23-6.39.34,0,.91-.15,2-.39a53.29,53.29,0,0,1,8-1.22h0A46.64,46.64,0,0,1,48.14,30.49Z"/><path class="cls-7" d="M37.53,29.32h0a52.68,52.68,0,0,0-7.9,1.21l-1.81.34c-1.56,2.95-2.77,5.34-3,6,.29.82,1.7,4,3.09,7.12a41,41,0,0,1,9.62-1.39,57.27,57.27,0,0,1,10.33,1.56c.26-.77,2.61-7.71,2.64-7.81-.17-.33-2.5-5-2.69-5.41A46.9,46.9,0,0,0,37.53,29.32Z"/><path class="cls-8" d="M37.55,29.82h0A51.8,51.8,0,0,0,29.73,31a7.49,7.49,0,0,0-1.9-.35,50.7,50.7,0,0,0-2.49,6.19c.33.85,1.44,3.42,2.83,6.51,2.61-.68,6.88-2.35,9.49-2.3,3.42.06,7.72,2,9.85,2.47.25-.74,2.85-6.87,3-7.22-.15-.3-2.85-4.62-3-5A46.71,46.71,0,0,0,37.55,29.82Z"/><path class="cls-6" d="M39,30.23l-1.42.09a51.05,51.05,0,0,0-7.72,1.19h0a9.48,9.48,0,0,0-1.69-.39,52.2,52.2,0,0,0-2.27,5.74l2.58,5.93c2.61-.64,6.63-1.77,9.19-1.72,3.23.06,7.14,1.36,9.52,1.89.24-.72,2.54-6.25,2.64-6.56-.15-.31-2.54-4.28-2.72-4.63A38.68,38.68,0,0,0,39,30.23Z"/><path class="cls-7" d="M37.59,30.82h0A50.58,50.58,0,0,0,30,32a7.16,7.16,0,0,0-1.46-.43c-.19.37-1.87,5-2,5.31.17.37,2,4.7,2.32,5.34,2.56-.6,6.44-1.62,9-1.57,3,.06,6.42,1.14,9.11,1.73l2-6c0-.1-1.91-3.86-2.1-4.23A46.52,46.52,0,0,0,37.59,30.82Z"/><path class="cls-4" d="M37.63,31.81A52.18,52.18,0,0,0,30.16,33l-.68.13-1.93,3.81c.15.36,1.24,4.13,1.51,4.74,1.54-.34,5.54-1.64,8.5-1.58,2.25,0,5.49,1,8.95,1.73.21-.62,1.16-5,1.27-5.3-.16-.31-1.19-3.51-1.37-3.87A40.17,40.17,0,0,0,37.63,31.81Z"/><path class="cls-6" d="M37.65,32.31a51.35,51.35,0,0,0-7.38,1.15l-.45.09c-.17.32-1.54,3-1.72,3.38.16.36,1.35,3.12,1.55,3.57a38.76,38.76,0,0,1,7.92-.93,48.46,48.46,0,0,1,8.28,1.08l1.39-4.11c-.15-.31-1.33-2.69-1.51-3A46.93,46.93,0,0,0,37.65,32.31Z"/><path class="cls-8" d="M37.67,32.81A49.19,49.19,0,0,0,30.38,34l-.23,0-1.5,3c.13.3,1,2.77,1.18,3.28a38.26,38.26,0,0,1,7.75-1.16,37.14,37.14,0,0,1,7.6.44c.2-.6,1.43-2.66,1.52-2.93l-1.31-2.65A47.28,47.28,0,0,0,37.67,32.81Z"/><path class="cls-7" d="M37.66,33.32a50.92,50.92,0,0,0-7.19.62l-1.28,2.52c.14.33.56,2.42.78,2.94,2.08-.4,5.16-1.38,7.6-1.33a47.57,47.57,0,0,1,7.59.94c.2-.59.88-2.59,1-2.9-.15-.29-1-1.9-1.11-2.24A20.07,20.07,0,0,0,37.66,33.32Z"/><path class="cls-4" d="M54.8,19.52l-3.26,8.63,2.57,8.27s14,1.86,15-.76c.27-.67,1.35-8.34,1.35-8.34l-3.25-6.75S56.13,20.46,54.8,19.52Z"/><path class="cls-7" d="M52.09,28.18,55,35.54c5.27.55,12.7.63,13.32-.91.18-.45,1.11-4.61,1.69-7.25-.14-.28-2.77-5.76-3-6.29-2,.12-8.83.46-11-.2Z"/><path class="cls-8" d="M52.76,28l-.12.22,2.67,6.86c6.76.67,11.71,0,12-.85a50.65,50.65,0,0,0,2.08-6.78c-.14-.29-2.69-5.58-2.81-5.84-2.21.13-8,.39-10.44-.14Z"/><path class="cls-6" d="M53.2,28.22h0v0c.15.38,2.11,6.09,2.3,6.58,6.79.64,11.38-.11,11.87-.6.14-.41.82-3.35,1.56-6.72-.14-.28-2.06-5.42-2.29-5.9-2.38.14-7.6.85-10.17.41Z"/><path class="cls-4" d="M53.74,28.27c.14.37,2.09,5.37,2.28,5.85,6.38.58,10.26.09,10.92-.24.16-.59.72-3,1.45-6.32L66,22.63a57.37,57.37,0,0,1-9.27-.09Z"/><path class="cls-8" d="M56.25,24.57l-2,3.73c.14.38,1.88,4.83,2.08,5.34,6,.52,9.36.08,10.14-.15l1.35-5.87c-.12-.27-1.8-4.24-2-4.72a59.35,59.35,0,0,1-8.79.16C56.82,23.47,56.25,24.57,56.25,24.57Z"/><path class="cls-4" d="M56.69,24.8h0s-2.21,3.14-2.4,3.5c.15.39,2.34,4.64,2.43,4.87a37.56,37.56,0,0,0,9.38-.11c.12-.52,1.17-5.09,1.24-5.38-.13-.26-1.46-4-1.68-4.45-2.09.1-5.79.62-8.33.36Z"/><path class="cls-7" d="M57.13,25h0l-1.75,3.34c.15.37,1.57,4,1.69,4.32a38.39,38.39,0,0,0,8.62-.06c.12-.55,1-4.59,1.12-4.89-.13-.28-1.55-3.22-1.72-3.57a60.79,60.79,0,0,1-7.47-.06Z"/><path class="cls-4" d="M61.74,39.57l7.95-1.66-.45,7.66-3,8.61a36.54,36.54,0,0,1-6.83.15c-2.5-.33-6.18-.22-6.68-.39s-1.17-8.62-1.17-8.62l2.23-7.69Z"/><path class="cls-7" d="M52.1,45.37A59,59,0,0,0,54,52.69c.25,0,.84.05,1.42.06a36.32,36.32,0,0,1,4.2.24,28.82,28.82,0,0,0,6.48-.37c.19-.5,2.54-6.91,2.61-7.11s-.59-5.3-.68-6.14l-6.32.7s-6.93-1.75-7.62-1.88C53.83,38.83,52.21,45.1,52.1,45.37Z"/><path class="cls-8" d="M52.62,45.41a65.13,65.13,0,0,0,1.76,6.79l1.07,0a37.55,37.55,0,0,1,4.26.24,26.38,26.38,0,0,0,6.05-.32c.18-.51,2.39-6.52,2.46-6.72s-.52-4.71-.61-5.53l-5.9.66-6.53-1.14Z"/><path class="cls-6" d="M53.5,44.62a7.56,7.56,0,0,0-.68.86,53.18,53.18,0,0,0,1.92,6.24l.73,0a36.29,36.29,0,0,1,4.3.25,28.92,28.92,0,0,0,6,0c.19-.51,1.9-6.39,2-6.6s-.3-4.51-.38-5.31c-.84.09-5.62.51-5.62.51s-5.53-.46-6.22-.58Z"/><path class="cls-7" d="M54,44.82h0l-.29.69c.54,2.42,1.09,4.6,1.45,5.72l.37,0a37.44,37.44,0,0,1,4.35.25A23,23,0,0,0,65,51.26c.18-.51,2.1-5.73,2.17-5.94s-.39-3.51-.47-4.29l-5.05.56-5.89-1C55.53,41.18,54,44.82,54,44.82Z"/><path class="cls-7" d="M54.42,45l-.23.54c.48,2.12,1,4,1.3,5.19h0a36.52,36.52,0,0,1,4.4.26,20.92,20.92,0,0,0,4.75-.22l2-5.53c0-.13-.32-2.93-.4-3.68l-4.63.51-5.57-1Z"/><path class="cls-8" d="M54.88,45.21s-.09.23-.16.39,1,4.08,1.17,4.66a34.57,34.57,0,0,1,4.08.25,19.74,19.74,0,0,0,4.33-.18c.16-.44,1.81-4.92,1.88-5.13l-.34-3.07-4.19.47-5.25-.92Z"/><path class="cls-4" d="M55.34,45.41l-.1.23,1,4.13A31.75,31.75,0,0,1,60,50a16.24,16.24,0,0,0,4.26.31c.16-.44,1.3-5,1.37-5.19s-.19-1.79-.27-2.46c-.77.09-3.75-.08-3.75-.08a16.2,16.2,0,0,0-4.95-.36Z"/><path class="cls-7" d="M55.81,45.61l0,.07c.07.26.77,3.08.91,3.61a31.34,31.34,0,0,1,3.42.23,17.18,17.18,0,0,0,3.48-.13l1.58-4.32c0-.17-.13-1.24-.2-1.83l-3.34.37L57,42.8Z"/><path class="cls-4" d="M36.49,7.32C33.6,7.34,27.7,9.24,26,9.85L22.83-2.43,37-7.43l13.25,4.5L47.73,9.24S40.78,7.29,36.49,7.32Z"/><path class="cls-5" d="M23.45-2.12c.27.81,3.1,9.43,3.37,10.24a48.54,48.54,0,0,1,9.73-1.55A61.53,61.53,0,0,1,46.88,7.91c.2-.79,2.55-9.72,2.76-10.52L37-6.9Z"/><path class="cls-6" d="M33.85-5s-9.67,3-10,3.12c.11.35,3.35,8.9,3.45,9.22a49.84,49.84,0,0,1,9.2-1.17c3.38,0,8.13,1.2,10.1,1.53.08-.33,2.13-9.46,2.22-9.81C48.46-2.27,37.16-6.72,37-6.77S33.85-5,33.85-5Z"/><path class="cls-7" d="M34-4.77,24.71-1.51l2.77,8.45a50.16,50.16,0,0,1,9-.9,67.38,67.38,0,0,1,9.62.73c.2-.76,2.09-7.95,2.3-8.73L37-5.84Z"/><path class="cls-8" d="M34.11-4.3h0L25.34-1.2c.26.8,1.82,6.85,2.48,7.57a51.08,51.08,0,0,1,8.66-1,61.83,61.83,0,0,1,9.29.89l2.07-7.85C47.12-1.88,37.32-5,37-5.1,36.71-5,34.11-4.3,34.11-4.3Z"/><path class="cls-6" d="M34.18-4.11l-8.59,3c.11.35,2.28,6.94,2.37,7.22a49,49,0,0,1,8.52-.82A61,61,0,0,1,45.62,6c.09-.33,1.89-7.16,2-7.5L37-5.1Z"/><path class="cls-7" d="M34.28-3.82,26-.89l2.2,6.68a51.85,51.85,0,0,1,8.31-1,59.72,59.72,0,0,1,8.93.83c.19-.73,1.64-6.21,1.83-7L37-4.79Z"/><path class="cls-9" d="M34.45-3.35,26.59-.58c.25.75,1.69,5.14,1.91,5.81a49.9,49.9,0,0,1,8-.91A57.17,57.17,0,0,1,45,5.09L46.63-1c-3.05-.36-9.2-3.13-9.62-3.27Z"/><path class="cls-8" d="M34.78-2.41,27.85,0,29.18,4.1a49.58,49.58,0,0,1,7.28-.78A54.62,54.62,0,0,1,44.29,4c.17-.63,1-3.76,1.14-4.32L37-3.2Z"/><path class="cls-6" d="M34.84-2.22h0L28.1.16l1.22,3.72a49.79,49.79,0,0,1,7.14-.76,53.79,53.79,0,0,1,7.68.64c.08-.3,1-4,1-4.28C44.82-.63,37.14-2.94,37-3Z"/><path class="cls-4" d="M34.94-1.94h0L28.48.34c.18.58.88,2.7,1,3.2a49.21,49.21,0,0,1,6.94-.72,54.22,54.22,0,0,1,7.46.61L44.82,0,37-2.67Z"/><path class="cls-7" d="M35.11-1.46h0L29.1.65c.09.26.59,1.8.77,2.33a49.89,49.89,0,0,1,6.58-.66,53.1,53.1,0,0,1,7.09.57c.12-.47.55-2.08.68-2.59L37-2.14Z"/><path class="cls-4" d="M48,48.32c-7.89-2.78-7.31-3-9.87-3.13-2.83-.12-10,2.74-11.38,3.63L25,54.07l2,4.6,2.36,4.62,8.13-1.72,7.75,1.75,4-4.5,1.68-4.94Z"/><path class="cls-4" d="M27.15,49.17c-.11.34-1.51,4.55-1.62,4.87l1.93,4.43,2.76,3.8,7.29-1.21,7.55,1.71,3.72-4.18c0-.25.89-4.45.94-4.72s-1.95-4.77-2.1-5.15c-1-.35-6.73-2.26-9.9-2.4C35.06,46.2,28.64,48.32,27.15,49.17Z"/><path class="cls-7" d="M27.56,49.53c-.11.31-1.39,4.17-1.5,4.49l1.85,4.25-.05,0a33.71,33.71,0,0,0,2.36,4c.56-.09,7.3-1.72,7.3-1.72l7.37,1.66,3.42-3.85c0-.25.84-4.17.89-4.44l-2-4.8c-1.41-.48-6.59-2.17-9.54-2.3C35.21,46.71,29.22,48.67,27.56,49.53Z"/><path class="cls-8" d="M28,49.89c-.12.36-1.27,3.79-1.37,4.11l1.77,4.07-.13-.17,2.42,3.29c.55-.1,7-1.87,7-1.87s6.52,2.22,7.05,2.34l3.14-3.54c0-.22.78-3.89.83-4.15s-1.29-4.48-1.44-4.85a49.27,49.27,0,0,0-9.56-1.8C35.46,47.22,29.84,49,28,49.89Z"/><path class="cls-6" d="M28,49.89c-.12.36-.73,3.77-.84,4.08l1.69,3.88,2.06,2.79c.55-.09,6.78-1.66,6.78-1.66s6.34,2,6.87,2.13l2.86-3.22c0-.22.72-3.61.77-3.87s-1.28-4.33-1.34-4.45a47.69,47.69,0,0,0-9.16-1.75A32.63,32.63,0,0,0,28,49.89Z"/><path class="cls-7" d="M28.77,50.63c-.11.34-1,3-1.1,3.32l1.61,3.69s1.12,2.35,1.6,3c.55-.09,6.78-2.41,6.78-2.41s6.16,2.21,6.69,2.32c.28-.3,2.41-2.71,2.57-2.89s.67-3.34.72-3.59-1.37-3.37-1.53-3.74a41,41,0,0,0-8.48-2C35.81,48.24,31,49.67,28.77,50.63Z"/><path class="cls-4" d="M29.58,51.39c-.11.32-.75,2.23-.84,2.51l1.45,3.34-.14-.17s1.19,1.56,1.49,1.94l6.05-1L44,59.45l2-2.25c0-.23.56-2.81.61-3s-.72-3.07-.87-3.44a43.2,43.2,0,0,0-8.15-1.42C36.06,49.25,31.76,50.49,29.58,51.39Z"/><path class="cls-6" d="M30,51.77c0,.15-.6,1.81-.7,2.1L30.65,57l1.1,1.43,5.86-1,6.21,1.41c.3-.35,1.56-1.77,1.71-1.93s.5-2.5.56-2.76c-.1-.23-1-2.35-1.1-2.66a36.8,36.8,0,0,0-7.42-1.74C36.25,49.76,32.32,50.84,30,51.77Z"/><path class="cls-8" d="M30.37,52.16c-.18.55.16,1.1,0,1.67.12.26.7,2.85.74,3L32,57.93l5.66-1,6,1.36c.22-.24.79-1.44.94-1.61s.94-2.22,1-2.46-1.35-1.77-1.49-2.12c-1.62-.51-4.47-2.08-6.42-2.17C36.46,49.93,32.68,51.27,30.37,52.16Z"/><path class="cls-7" d="M30.77,52.55c-.1.3-.35,1-.43,1.28l1.18,2.7.66.86,5.46-.92,5.82,1.32,1.14-1.28c0-.22.4-1.95.44-2.19s-.66-1.62-.79-2c-1.55-.49-4.75-2-6.59-2C36.65,50.27,33.24,51.62,30.77,52.55Z"/><path class="cls-4" d="M53,55.57l5.5,1.25L67,55.09l-2.88,6.68-2.14,3-2.33,3.41s-2.5.25-3.5.5-4.25-1.25-4.25-1.25L46.43,65Z"/><path class="cls-7" d="M47.13,64.72c.79.34,5,2.31,5,2.31,1.5.69,3.42,1.35,3.93,1.22.89-.22,2.78-.43,3.34-.49l2.16-3.16,1-3.18,2.59-5-6.63.88-5.22-1.18C52.93,56.72,47.6,63.88,47.13,64.72Z"/><path class="cls-8" d="M50.19,62.73s-.93,1.69-1.29,2.36l3.41,1.48a12,12,0,0,0,3.61,1.19,31.24,31.24,0,0,1,3.17-.47l2-2.91c0-.14,1-3.11,1-3.11a27.46,27.46,0,0,0,2.79-4.7c-1.4.18-6.38,1.26-6.38,1.26l-4.94-1.12Z"/><path class="cls-6" d="M50.63,63h0a16.52,16.52,0,0,0-1.56,1.93c.74.32,3.44,1.21,3.44,1.21,1.79.83,2.92,1.63,3.15,1.62a16.5,16.5,0,0,1,3.15-.91l1.82-2.66c0-.13.93-3,.93-3a17.56,17.56,0,0,0,3.27-4.56c-1.33.17-6.41,1.77-6.41,1.77s-4.05-1.13-4.68-1.27C53.42,57.66,50.63,63,50.63,63Z"/><path class="cls-4" d="M51.07,63.21s-.47.87-.77,1.4l2.41,1a13.7,13.7,0,0,0,3.14,1.11c.52-.12,1.42-.26,2.67-.41l1.65-2.41.91-3a21,21,0,0,0,2.16-3.41,49.72,49.72,0,0,0-4.84,1.28l-4.38-1Z"/><path class="cls-8" d="M51.51,63.45s-.28.5-.5.92l1.9.82a14.58,14.58,0,0,0,3,1.07l2.37-.37,1.48-2.17c0-.14.89-2.89.89-2.89s.9-1.62,1.31-2.43a29.44,29.44,0,0,0-3.53,1s-3.1-.39-3.72-.53C54.34,59.4,51.51,63.45,51.51,63.45Z"/><path class="cls-4" d="M52,63.69l-.24.44,1.39.6a29.86,29.86,0,0,1,2.76,1.53c.15,0,1.77-.78,2.08-.83l1.32-1.93c0-.14,1.34-2.67,1.34-2.67a5.85,5.85,0,0,1,.31-1.76c-.93.12-2.33.41-2.33.41s-3.44-.35-4-.49Z"/><path class="cls-7" d="M52.41,63.89l.89.39a14.58,14.58,0,0,0,2.59,1L57.65,65l1.16-1.69.85-2.77,0,.18s.12-.3.22-.52l-1.52.2-3.54-.8Z"/><path class="cls-4" d="M57.78-.87s3.45-2.78,4.45-2.44S71.51-2.1,71.51-2.1l.67,3v4L68,6.23l-2.66.34-1-2.95Z"/><path class="cls-7" d="M59-.65s2.77-1.82,3.55-1.56,8,.92,8,.92L71,1.05V4.17l-3.38,1-2.08.26-.52-2.6Z"/><path class="cls-8" d="M60.59.06s4.38-1.73,5-1.53,4.17.81,4.17.81l.4,1.82V3.59l-2.74.81-1.63.21-.4-2Z"/><path class="cls-4" d="M61.28.42s3.83-2,4.3-1.89,3.56,1.3,3.56,1.3l.32,1.42v1.9l-2.26.63-1.26.16-.32-1.58Z"/><path class="cls-7" d="M61.82.7S65.5-.93,65.87-.81s2.29,1,2.29,1l.76,1.11V2.8l-1.87.49-1,.13-.25-1.24Z"/><path class="cls-4" d="M11.49-1.1S8.83-3.77,7.83-3.43s-6,1.33-6,1.33L1.16.9.49,7.47,4.16,8.8l2.66.33L7.49,5.8Z"/><path class="cls-7" d="M10.35-.51S8.28-2.59,7.5-2.33s-4.68,1-4.68,1L2.3,1.05,1.63,6.73l2.86,1L6.57,8l.52-2.6Z"/><path class="cls-8" d="M9.47,0S7.85-1.67,7.24-1.47s-3.65.81-3.65.81L3.18,1.16l-.67,5L4.74,7l1.63.2L7.44,2.58Z"/><path class="cls-4" d="M8.77.3S7.71-1.63,7.24-1.47s-3,1.3-3,1.3L3.88,1.25,3.21,5.71,5,6.35l1.26.15,1-4.14Z"/><path class="cls-7" d="M8.23.58S7.32-.93,7-.81s-2.29,1-2.29,1L4.42,1.32V2.8L5.1,5.86l1,.12L7,2.18Z"/><path class="cls-4" d="M11.49,71S8.83,68.3,7.83,68.64s-6,1.33-6,1.33l-.67,3L.49,79.54l3.67,1.33,2.66.33.67-3.33Z"/><path class="cls-7" d="M10.35,71.56S8.28,69.48,7.5,69.74s-4.68,1-4.68,1L2.3,73.12,1.63,78.8l2.86,1,2.08.26.52-2.6Z"/><path class="cls-8" d="M9.47,72S7.85,70.39,7.24,70.6s-3.65.81-3.65.81l-.41,1.82-.67,5L4.74,79l1.63.2,1.07-4.59Z"/><path class="cls-4" d="M8.77,72.37S7.71,70.44,7.24,70.6s-3,1.3-3,1.3l-.31,1.42-.67,4.46L5,78.41l1.26.16,1-4.14Z"/><path class="cls-7" d="M8.23,72.65S7.32,71.14,7,71.26s-2.29,1-2.29,1l-.24,1.11v1.48l.68,3.06,1,.12L7,74.25Z"/><polygon class="cls-4" points="73.78 36.29 70.53 36.63 72.33 45.57 69.52 55.38 73.52 57.05 77.52 55.72 74.66 46.9 75.66 37.9 73.78 36.29"/><path class="cls-7" d="M71.05,37c0,.67,1.78,8.67,1.78,8.67s-2.37,8.66-2.67,9.46l3.38,1.4,3.27-1.09c-.43-.86-2.67-8.44-2.67-8.44s.91-8.35,1-8.87l-1.23-1C73.58,37.23,71.45,36.85,71.05,37Z"/><path class="cls-8" d="M71.57,37.34c0,.66,1.77,8.38,1.77,8.38S71.1,54,70.8,54.83L73.55,56l2.56-.85c-.43-.85-2.74-8.31-2.74-8.31.72-5.06.91-6.33,1.22-8.5l-.8-.63C73.56,37.77,71.86,37.24,71.57,37.34Z"/><path class="cls-4" d="M73.69,38.25c.15.11.22.17.36.29,0,.2-.18,3.29-.35,4.51-.08-1.37-1.6-5-1.61-5.36C72.16,37.67,73.63,38.27,73.69,38.25Zm-.46,9.15c.1.19,2.21,6.79,2.62,7.61-.33.11-2,.35-2.27.44-.25-.1-2.3-.42-2.78-.62C71,54.25,72.63,49,73.23,47.4Z"/><path class="cls-7" d="M73,49.48s-.68,4.2-.9,4.8l1.51.63,1.11-.36c-.31-.62-.8-5.8-1.33-6.86A15.7,15.7,0,0,0,73,49.48Z"/><polygon class="cls-4" points="67.61 8.9 71.61 7.57 78.51 10.29 76.61 17.23 73.28 17.57 69.94 17.57 68.94 12.57 67.61 8.9"/><path class="cls-7" d="M68.26,9.21l1.15,3.19c0,.06.71,3.51.94,4.67h2.93l2.81-.29c0-.79-.27-6.34-.3-6.88l-4.2-1.8Z"/><path class="cls-8" d="M68.26,9.21c.25.7,1.62,3,1.62,3s.66,3.23.88,4.34h2.52l0,0c.37-.08,1-.14,2.23-.27h.11c0-.78,2.48-5.18,2.46-5.71-.48-.2-6.17-1.86-6.46-2C71.29,8.73,68.92,9,68.26,9.21Z"/><path class="cls-4" d="M69.55,9.84c.23.65.8,2.21.8,2.21s0,.07.73,3.55a3,3,0,0,0-.32,1,19,19,0,0,0,2.52-.5l-.15.05,1.92-.23c0-.75,2.15-4.52,2.12-5-.46-.2-5.33-1.55-5.63-1.68Z"/><path class="cls-7" d="M70.19,10.15c.22.59.63,1.73.63,1.73s0,.11.75,3.62a.56.56,0,0,1,0,.07h1.7v0l1.25-.15c0-.72,1.1-3.54,1.08-4-.45-.2-3.81-1.58-4.09-1.7Z"/><path class="cls-4" d="M70.68,11.11l.5,1.13c0,.07,0,.07.58,2.35v.05H73.1v0l1-.1c0-.47-.14-2.63-.16-3l-2.2-.79Z"/><path class="cls-8" d="M1,30.2c.29,1.52,1.13,3.68,1.29,4.49-.6-.1-1.6-.53-2.07-.61C.29,33.51.62,31.83,1,30.2Z"/><polygon class="cls-4" points="71.75 23.53 68.95 17.88 75.87 19.11 77.21 22.57 74.31 28.57 75.65 35.57 71.65 34.9 72.98 28.23 71.75 23.53"/><path class="cls-7" d="M72.24,23.42l1.25,4.8-1.25,6.27L75,35c-.22-1.14-1.22-6.41-1.22-6.41s2.55-5.59,2.63-5.87c-.07-.22-.82-2.78-1-3.15-.39-.09-4.94-.77-5.89-1C69.78,19.52,72.24,23.4,72.24,23.42Z"/><path class="cls-8" d="M70.23,19.2c.8.18,4.52.67,4.87.75.11.33.59,3,.66,3.17A20.92,20.92,0,0,0,73.7,27c-.33-1.28-1-3.72-1-3.74S70.4,20.07,70.23,19.2Zm3.38,11c.29,1.52,1.13,3.68,1.29,4.49-.6-.1-1.6-.53-2.07-.61C73,33.51,73.28,31.83,73.61,30.2Z"/><path class="cls-4" d="M71.18,19.78c.56.12,3.27.54,3.53.6,0,.05-.36,2-.3,2.23S74,25.83,73.7,27c-.18-.7-.48-3.82-.49-3.85A23.29,23.29,0,0,1,71.18,19.78Zm2.59,10.91c.06.31,1,3.59,1.13,4-.18,0-1.32-1-1.48-1l.08-.38S73.75,30.82,73.77,30.69Z"/><polygon class="cls-4" points="1.12 36.29 -2.13 36.63 -0.33 45.57 -3.14 55.38 0.86 57.05 4.86 55.72 2 46.9 3 37.9 1.12 36.29"/><path class="cls-7" d="M-1.61,37c0,.67,1.78,8.67,1.78,8.67S-2.2,54.31-2.5,55.11l3.38,1.4,3.27-1.09C3.72,54.56,1.48,47,1.48,47s.91-8.35,1-8.87l-1.23-1C.92,37.23-1.21,36.85-1.61,37Z"/><path class="cls-8" d="M-1.09,37.34c0,.66,1.77,8.38,1.77,8.38S-1.56,54-1.86,54.83L.9,56l2.55-.85C3,54.28.71,46.82.71,46.82c.72-5.06.91-6.33,1.22-8.5l-.8-.63C.9,37.77-.8,37.24-1.09,37.34Z"/><path class="cls-4" d="M1,38.25c.15.11.22.17.36.29,0,.2-.18,3.29-.35,4.51C1,41.68-.56,38-.57,37.69-.5,37.67,1,38.27,1,38.25ZM.57,47.4c.1.19,2.21,6.79,2.62,7.61-.32.11-2,.35-2.27.44-.25-.1-2.3-.42-2.78-.62C-1.64,54.25,0,49,.57,47.4Z"/><path class="cls-7" d="M.32,49.48s-.67,4.2-.9,4.8l1.51.63L2,54.55c-.31-.62-.8-5.8-1.33-6.86A15.7,15.7,0,0,0,.32,49.48Z"/><polygon class="cls-4" points="-5.05 8.9 -1.05 7.57 5.85 10.29 3.95 17.23 0.62 17.57 -2.71 17.57 -3.71 12.57 -5.05 8.9"/><path class="cls-7" d="M-4.4,9.21l1.15,3.19c0,.06.71,3.51,1,4.67H.62l2.81-.29c0-.79-.27-6.34-.3-6.88l-4.2-1.8Z"/><path class="cls-8" d="M-4.4,9.21c.25.7,1.62,3,1.62,3s.66,3.23.88,4.34H.62l-.05,0c.37-.08,1-.14,2.23-.27h.11c0-.78,2.48-5.18,2.46-5.71-.48-.2-6.17-1.86-6.46-2C-1.36,8.73-3.74,9-4.4,9.21Z"/><path class="cls-4" d="M-3.11,9.84c.23.65.8,2.21.8,2.21s0,.07.73,3.55a3,3,0,0,0-.32,1,19,19,0,0,0,2.52-.5l-.15.05,1.92-.23c0-.75,2.15-4.52,2.12-5-.46-.2-5.33-1.55-5.63-1.68Z"/><path class="cls-7" d="M-2.47,10.15c.22.59.63,1.73.63,1.73s0,.11.75,3.62a.56.56,0,0,1,0,.07H.62v0l1.25-.15c0-.72,1.1-3.54,1.08-4-.45-.2-3.8-1.58-4.09-1.7Z"/><path class="cls-4" d="M-2,11.11c.16.38.49,1.13.49,1.13s0,.07.58,2.35v.05H.44v0l1-.1c0-.47-.14-2.63-.16-3l-2.2-.79Z"/><polygon class="cls-4" points="-0.91 23.53 -3.71 17.88 3.21 19.11 4.55 22.57 1.65 28.57 2.99 35.57 -1.01 34.9 0.32 28.23 -0.91 23.53"/><path class="cls-7" d="M-.42,23.42l1.25,4.8L-.42,34.49,2.36,35c-.22-1.14-1.22-6.41-1.22-6.41S3.69,23,3.77,22.68,3,19.9,2.83,19.53c-.4-.09-4.95-.77-5.9-1C-2.88,19.52-.42,23.4-.42,23.42Z"/><path class="cls-8" d="M-2.43,19.2c.8.18,4.52.67,4.87.75.11.33.59,3,.66,3.17A20.92,20.92,0,0,0,1,27c-.33-1.28-1-3.72-1-3.74S-2.26,20.07-2.43,19.2ZM1,30.2c.29,1.52,1.13,3.68,1.29,4.49-.6-.1-1.6-.53-2.07-.61C.29,33.51.62,31.83,1,30.2Z"/><path class="cls-4" d="M-1.48,19.78c.56.12,3.27.54,3.53.6,0,.05-.36,2-.3,2.23S1.38,25.83,1,27c-.18-.7-.48-3.82-.49-3.85A23.29,23.29,0,0,1-1.48,19.78ZM1.11,30.69c.06.31,1.05,3.59,1.13,4-.18,0-1.32-1-1.48-1l.08-.38S1.09,30.82,1.11,30.69Z"/><path class="cls-2" d="M3.38,30.65l.67,3.16L4.38,36l-.17,2-.16,1.33.33,3.17.33,2.83-.33,2.34,1.5,1.5L6.71,52l2.34,1.5-3-1.17-1.17-3L3.63,47.11l.37-3-.25-2.75-.5-2.63.63-2.62a20.81,20.81,0,0,1-.75-3.5A18,18,0,0,0,3.38,30.65Z"/><path class="cls-3" d="M3.07,30.33l.66,3.17.34,2.17-.17,2L3.73,39l.34,3.17L4.4,45l-.33,2.33,1.5,1.5.83,2.84,2.33,1.5L5.73,52,4.57,49,3.32,46.79l.37-3L3.44,41l-.5-2.62.63-2.63a20.59,20.59,0,0,1-.75-3.5A17.65,17.65,0,0,0,3.07,30.33Z"/><polygon class="cls-4" points="68.33 55.9 66.41 60.1 64.66 63.57 62.76 65.72 67.33 66.9 69.33 67.23 72.29 64.53 72.29 58.19 68.33 55.9"/><path class="cls-7" d="M67.47,60.38l0,.08L65.1,63.81,64.63,65l2.85,1.43,1.59.27c.28-.47,2.6-2.1,2.72-2.3v-5.9c-.35-.2-2.52-1.49-3.17-1.85Z"/><path class="cls-8" d="M68,60.53l0,.07-.06.14-2.32,3.31c0,.06-1,.69-1.17,1,.58.29,3.16.81,3.27.87l1.18.2c.18-.3,2.85-1.54,3-1.75s-.5-5.09-.5-5.61c-.35-.19-2.31-1.37-2.37-1.41Z"/><path class="cls-4" d="M68.42,60.68l0,.14-.06.14c0,.07-2.76,3.47-2.94,3.73,0,0,.79.4.75.5a6.56,6.56,0,0,0,1.67.27l.77.13c.26-.43,2.78-1.33,2.9-1.52s-.67-4.48-.67-5c-.18-.11-1.29-.81-1.58-1C69,58.89,68.42,60.68,68.42,60.68Z"/><path class="cls-7" d="M68.9,60.82l-.05.17-.1.19s-1.62,2.34-2.16,3.12L68,65l.36.06a28.68,28.68,0,0,1,2.53-1.52c0-.21-1.51-2.83-1.51-4.07C69.12,60.13,68.9,60.82,68.9,60.82Z"/><polygon class="cls-4" points="5.44 55.93 8.32 59.68 10.65 63.01 9.43 66.13 6.09 67.79 2.96 68.98 0.65 66.66 1.54 57.4 5.44 55.93"/><path class="cls-7" d="M7.79,60.17l.89,1L10,63c0,.08-1.41,2.47-1.23,2.93L5.93,67.31c-.11,0-2.27,1-2.72,1.12-.28-.47-1.94-1.71-2.06-1.91S2,58.21,2,57.69c.35-.19,2.53-.5,3.18-.86C5.62,58.12,6.85,57.12,7.79,60.17Z"/><path class="cls-8" d="M7.34,59.5l.45,1.79.55.89s1.28,1.14,1.34,1.23a10.87,10.87,0,0,0-.52,2.22c-.59.29-3.16.81-3.27.87A21.26,21.26,0,0,1,3.53,68c-.19-.3-2.14-1.61-2.27-1.82s1.4-8,1.4-8.54a14,14,0,0,1,2.45-.15C5.36,58.33,7.34,59.5,7.34,59.5Z"/><path class="cls-4" d="M6.67,59.73,7,61.85l2,1.67c0,.07-1.14,1.81-1,2.07,0,0-.79.39-.75.5a6.9,6.9,0,0,1-1.68.26c-.09,0-2.1,1.14-2.41,1.19C3,67.11,1.6,66.39,1.49,66.2S3,58.79,3,58.28c.19-.1,1.44-.18,1.73-.34C5,58.72,6.67,59.73,6.67,59.73Z"/><path class="cls-7" d="M5.44,59.73l.22.78a27.06,27.06,0,0,1,2,3s-1,1-.44,1.79a7.72,7.72,0,0,1-1.91.2c-.1,0-1.87,1.36-1.89,1.36-.21-.36-.82-1-.93-1.12S4,60,4,58.72C4.2,59.4,5.44,59.73,5.44,59.73Z"/><path class="cls-4" d="M50-3,44.08-.1,41.41-.43l-.5-.75a4.2,4.2,0,0,0-1-.25c-.33,0-1.5.16-1.5.16L37.74-1l-.66-.08L37-7.43l-.66,6.08-.75.25h-.92l-.92-.17L33,.07,31.24.65,29,.15,23.16-2.43,28.74.82a5.82,5.82,0,0,0,1,1,8.89,8.89,0,0,0,1.59-.09l-.59,1.84-1.56.53L26.83,7.9l2.66-3.33,3-.84,1.92-.33,1.17.08.88.34.62.58L37,6.65l.5-2.25,1.92-.5,1.5-.33,1.75.91,4.5,3.67L43.08,3.57l-.09-2L42.74.73s1,.17,1.25,0Z"/><path class="cls-8" d="M36.62-.34l-1.79.9-.41,1.51,2,1.06,2.38-1.06L38.41.41A18.45,18.45,0,0,1,36.62-.34Z"/><path class="cls-7" d="M36.62-.06,35,.69l-.37,1.25,1.83,1.19,2.17-1.19L38.24.57S37.12.19,36.62-.06Z"/><path class="cls-8" d="M36.62.57l1.25.62L36.74,2.32l.59-.9A1.46,1.46,0,0,0,36.62.57Z"/><path class="cls-2" d="M20.37,54.19l1.12-1,1.25-1,.63,2.38,1.25,1.87,2,3.13.75,3.12.87,1.88,3.63.25,1.25-1.5h7.5l3,.5,1.62,1.37,1.88,1.63,2.25.75-2.75-.25-2.75-2.13-1.5-.87-3-.25H36.62l-3.25-.38-.25,1.13-1.75.75H29.49l-1.87-.5L27,63.32l-1.12-3.63s-1.5-2.87-1.88-3-1.5-1.87-1.5-1.87V53.57Z"/><path class="cls-3" d="M20.49,53.69l1.13-1,1.25-1,.62,2.38,1.25,1.87,2,3.13.75,3.12.88,1.88,3.62.25,1.25-1.5h7.5l3,.5,1.63,1.37,1.87,1.63,2.25.75-2.75-.25L44,64.69l-1.5-.87-3-.25H36.74l-3.25-.38-.25,1.13-1.75.75H29.62l-1.88-.5-.62-1.75L26,59.19s-1.5-2.87-1.87-3-1.5-1.87-1.5-1.87V53.07Z"/><path class="cls-4" d="M28.37,17.5c-.13-.18.06-1.12.06-1.12L26.32,12l2.73,4.13,2.32.31h1.31l1.5-.56,1.56-.06.88-.44v-5l.18-.44.38.75L37.55,15l1.32.25.5.07.43.56.82.37,2.18.07L44,15.44l3.32-4.06L44.5,15.69l.3,1.75L46,18.57l1.32.37L53,18.82l-6.06.68-.88.94-.43.56,1.9,5.48-2.4-5.23-1.38-.37L42.8,19.5l-.18-1.43-1.38-.63-.75-.12-.62-.13-.69-.12-.63,1.5-.56.37-.62-.12-.63-.25-.62-.88.06-1.25-1.38.88.25,2.43-1.12.38L33.37,20l-1.5-.56-.25-.81-.57-.75-.25,1.87-.87.94-.81,1.38-2.32,4.5,2.07-5.38V18.5L22.08,19Z"/><polygon class="cls-8" points="37.67 15.49 36.66 15.73 36.52 17.32 37.45 18.44 38.83 17.24 38.54 15.49 37.67 15.49"/><polygon class="cls-7" points="37.68 15.82 36.8 16 36.68 17.25 37.49 18.13 38.68 17.19 38.43 15.82 37.68 15.82"/><polygon class="cls-4" points="38.49 33.07 39.91 33.4 40.66 33.9 41.83 34.32 43.33 33.98 44.49 33.9 48.8 28.86 44.99 34.32 44.41 35.4 51.24 36.4 43.83 35.82 42.99 36.4 48.17 44.72 42.24 36.57 41.66 37.4 40.41 37.48 38.49 36.9 37.5 43.07 37.99 36.82 35.91 35.48 34.08 36.82 27.41 44.48 33.49 36.07 24.07 36.65 33.66 35.4 27.66 30.23 34.91 35.48 36.49 34.65 36.49 34.32 37.24 33.65 38.16 28.4 38.49 33.07"/><polygon class="cls-8" points="38.16 33.57 37.24 34.32 37.08 35.23 38.08 36.32 38.99 36.32 39.91 35.57 40.24 34.57 39.49 33.9 38.16 33.57"/><polygon class="cls-10" points="38.36 33.57 37.82 34.32 37.72 35.23 38.31 36.32 38.86 36.32 39.4 35.57 39.6 34.57 39.15 33.9 38.36 33.57"/><path class="cls-8" d="M38.91,34.32l.08.75-.41.58.75-.5S39.41,34.4,38.91,34.32Z"/><polygon class="cls-4" points="27.07 48.9 30.57 52.82 32.08 53.57 24.99 54.07 32.08 54.07 30.22 62.27 32.83 54.32 34.49 54.07 35.33 54.65 36.24 54.98 36.91 54.73 37.51 61.06 37.83 54.73 39.24 55.32 40.49 54.65 45.06 62.77 41.41 54.4 43.08 53.9 48.99 58.48 43.41 53.57 46.58 53.82 49.72 53.87 43.66 53.07 43.33 52.15 47.66 48.48 42.91 51.9 41.58 51.15 40.33 50.48 39.99 51.07 38.58 51.65 38.33 51.82 37.49 45.98 37.58 51.9 36.08 52.23 34.08 52.48 33.08 53.07 32.16 52.9 30.99 52.32 27.07 48.9"/><path class="cls-8" d="M35.41,53.23l1.5-.25L38,52.73l.84.09.66.33.75.83.59.17-.67.5-.83-.08a2.52,2.52,0,0,0-.75-.25,8.37,8.37,0,0,0-1,.16l-1.09.09-1.08-.5Z"/><path class="cls-10" d="M35.33,52.9l1.5-.25,1.08-.25.83.08.67.34.75.83.58.17-.66.5-.84-.09a2.52,2.52,0,0,0-.75-.25,7.92,7.92,0,0,0-1,.17l-1.08.08-1.08-.5Z"/><path class="cls-8" d="M37.91,53.15l-.67-.33-.91.33.25.25a1.38,1.38,0,0,0,.75.25,20.25,20.25,0,0,0,2.16-.42s-.83-.91-1.5-.25"/><path class="cls-2" d="M23.83,79.23s-2-7.5-1.5-8.66l2.5,8.66L25,80.57Z"/><path class="cls-3" d="M23.33,78.9s-2-7.5-1.5-8.67l2.5,8.67.16,1.33Z"/><path class="cls-2" d="M27.66,9.4l4-1,2.83-.17h2.34L40,8.4h2.34l2.16.5,2.33.17,2,1.16-2-.33L44,9.4s-2.66-.5-3.33-.5H37.33l-3-.17H32.16A10.91,10.91,0,0,1,27.66,9.4Z"/><polygon class="cls-2" points="50.82 -1.9 49.99 1.07 50.49 2.73 50.13 3.25 49.32 4.4 48.16 6.9 50.16 4.9 51.16 2.4 50.82 -1.9"/><polygon class="cls-3" points="51.65 -3.96 50.16 0.4 50.66 2.07 50.3 2.58 49.49 3.73 48.33 6.23 50.33 4.23 50.96 0.31 51.65 -3.96"/><path class="cls-4" d="M36.49,79.39c-2.89,0-8.79,1.92-10.47,2.53L22.83,69.64l14.16-5,13.25,4.5L47.73,81.31S40.78,79.35,36.49,79.39Z"/><path class="cls-5" d="M23.45,69.94c.27.82,3.1,9.44,3.37,10.25a48.54,48.54,0,0,1,9.73-1.55A61.53,61.53,0,0,1,46.88,80c.2-.79,2.55-9.72,2.76-10.52L37,65.17Z"/><path class="cls-6" d="M33.85,67s-9.67,3-10,3.12c.11.35,3.35,8.9,3.45,9.22a49.84,49.84,0,0,1,9.2-1.17c3.38,0,8.13,1.2,10.1,1.53.08-.33,2.13-9.47,2.22-9.81C48.46,69.8,37.16,65.35,37,65.3S33.85,67,33.85,67Z"/><path class="cls-7" d="M34,67.3l-9.24,3.26L27.48,79a51.12,51.12,0,0,1,9-.91,68.7,68.7,0,0,1,9.62.74c.2-.76,2.09-8,2.3-8.73L37,66.22Z"/><path class="cls-8" d="M34.11,67.77h0l-8.77,3.1c.26.79,1.82,6.85,2.48,7.56a51,51,0,0,1,8.66-1,61.83,61.83,0,0,1,9.29.89c.2-.77,1.94-7.36,2.07-7.85L37,67C36.71,67.07,34.11,67.77,34.11,67.77Z"/><path class="cls-6" d="M34.18,68l-8.59,3c.11.35,2.28,6.94,2.37,7.22a49,49,0,0,1,8.52-.82,62.39,62.39,0,0,1,9.14.66c.09-.32,1.89-7.15,2-7.49L37,67Z"/><path class="cls-7" d="M34.28,68.25,26,71.18l2.2,6.68a51.85,51.85,0,0,1,8.31-1,59.72,59.72,0,0,1,8.93.83c.19-.73,1.64-6.21,1.83-7L37,67.28Z"/><path class="cls-9" d="M34.45,68.72l-7.86,2.77,1.91,5.8a51,51,0,0,1,8-.9,57.17,57.17,0,0,1,8.56.77l1.6-6.08c-3.05-.36-9.2-3.13-9.62-3.27Z"/><path class="cls-8" d="M34.78,69.66,27.85,72.1l1.33,4.07a49.58,49.58,0,0,1,7.28-.78,54.62,54.62,0,0,1,7.83.66c.17-.63,1-3.76,1.14-4.32L37,68.87Z"/><path class="cls-6" d="M34.84,69.85h0L28.1,72.23l1.22,3.71a51.06,51.06,0,0,1,7.14-.75,53.79,53.79,0,0,1,7.68.64c.08-.3,1-4,1-4.28L37,69.08Z"/><path class="cls-4" d="M34.94,70.13h0l-6.46,2.28c.18.58.88,2.7,1,3.2a49.21,49.21,0,0,1,6.94-.72,54.22,54.22,0,0,1,7.46.61l.9-3.45L37,69.4Z"/><path class="cls-7" d="M35.11,70.6h0l-6,2.12c.09.26.59,1.79.77,2.33a48.24,48.24,0,0,1,6.58-.66,53.1,53.1,0,0,1,7.09.57c.12-.47.55-2.08.68-2.59L37,69.93Z"/><path class="cls-4" d="M50,69.05,44.08,72l-2.67-.33-.5-.75a4.2,4.2,0,0,0-1-.25c-.33,0-1.5.16-1.5.16l-.67.25L37.08,71,37,64.64l-.66,6.08-.75.25h-.92l-.92-.17L33,72.14l-1.75.58L29,72.22l-5.83-2.58,5.58,3.25a5.82,5.82,0,0,0,1,1,8.89,8.89,0,0,0,1.59-.09l-.59,1.84-1.56.53L26.83,80l2.66-3.33,3-.84,1.92-.33,1.17.08.88.34.62.58L37,78.72l.5-2.25,1.92-.5,1.5-.33,1.75.91,4.5,3.67-4.08-4.58-.09-2-.25-.84s1,.17,1.25,0Z"/><path class="cls-8" d="M36.62,71.73l-1.79.9-.41,1.51,2,1.06,2.38-1.06-.42-1.66A18.45,18.45,0,0,1,36.62,71.73Z"/><path class="cls-7" d="M36.62,72,35,72.76,34.62,74l1.83,1.19L38.62,74l-.38-1.37S37.12,72.26,36.62,72Z"/><polygon class="cls-2" points="50.82 70.17 49.99 73.14 50.49 74.8 50.13 75.32 49.32 76.47 48.16 78.97 50.16 76.97 51.16 74.47 50.82 70.17"/><polygon class="cls-3" points="51.65 68.1 50.16 72.47 50.66 74.14 50.3 74.65 49.49 75.8 48.33 78.3 50.33 76.3 50.96 72.38 51.65 68.1"/><polygon class="cls-2" points="5.95 13.19 5.62 16.36 5.45 18.36 4.62 19.52 6.45 20.36 7.62 19.52 10.78 19.52 8.78 20.52 6.62 20.94 4.78 20.69 3.78 19.52 4.62 16.86 4.78 15.03 5.95 13.19"/><polygon class="cls-3" points="5.45 13.32 5.12 16.48 4.95 18.48 4.12 19.65 5.95 20.48 7.12 19.65 10.28 19.65 8.28 20.65 6.12 21.07 4.28 20.82 3.28 19.65 4.12 16.98 4.28 15.15 5.45 13.32"/><polygon class="cls-2" points="61.12 1.69 63.24 2.94 63.99 4.69 64.74 7.57 66.62 7.69 68.24 7.19 66.62 8.44 66.24 10.07 67.12 11.57 67.74 15.82 66.62 12.32 65.12 9.44 65.62 8.44 64.37 7.94 63.62 4.69 62.74 3.19 61.12 1.69"/><polygon class="cls-2" points="70.24 41.32 71.49 45.19 70.49 48.07 69.62 49.07 69.12 52.44 69.37 53.69 68.37 54.94 67.62 55.82 68.62 53.57 68.87 50.32 68.99 48.32 70.24 45.82 70.24 43.32 70.24 41.32"/><polygon class="cls-3" points="69.87 41.57 71.12 45.44 70.12 48.32 69.24 49.32 68.74 52.69 68.99 53.94 67.99 55.19 67.24 56.07 68.24 53.82 68.49 50.57 68.62 48.57 69.87 46.07 69.87 43.57 69.87 41.57"/><polygon class="cls-2" points="50.37 43.82 49.49 46.19 48.12 47.07 46.12 46.07 44.24 46.07 45.87 46.82 47.99 47.69 49.24 48.94 50.37 52.82 51.37 53.94 51.49 56.07 53.12 54.94 55.24 55.32 56.99 55.94 59.99 55.57 57.24 55.32 55.24 54.69 53.37 54.32 52.37 54.32 50.99 52.57 50.24 50.57 49.87 47.94 48.87 47.32 50.24 45.82 50.37 43.82"/><polygon class="cls-3" points="50.74 43.44 49.87 45.82 48.49 46.69 46.49 45.69 44.62 45.69 46.24 46.44 48.37 47.32 49.62 48.57 50.74 52.44 51.74 53.57 51.87 55.69 53.49 54.57 55.62 54.94 57.37 55.57 60.37 55.19 57.62 54.94 55.62 54.32 53.74 53.94 52.74 53.94 51.37 52.19 50.62 50.19 50.24 47.57 49.24 46.94 50.62 45.44 50.74 43.44"/><polygon class="cls-2" points="9.99 -10.1 11.49 -7.27 11.82 -5.1 13.66 -4.43 13.82 -2.93 14.16 -0.93 13.82 0.4 9.68 4.82 7.23 10.62 9.01 3.82 12.82 -0.43 12.49 -3.1 11.32 -4.27 10.82 -7.27 9.99 -10.1"/><path class="cls-4" d="M57.78,71.13s3.45-2.78,4.45-2.44,9.28,1.21,9.28,1.21l.67,3v4L68,78.23l-2.66.34-1-2.95Z"/><path class="cls-7" d="M59,71.35s2.77-1.82,3.55-1.56,8,.92,8,.92L71,73.05v3.12l-3.38,1-2.08.26-.52-2.6Z"/><path class="cls-8" d="M60.59,72.07s4.38-1.74,5-1.54,4.17.81,4.17.81l.4,1.82V75.6l-2.74.81-1.63.2-.4-2Z"/><path class="cls-4" d="M61.28,72.42s3.83-2,4.3-1.89,3.56,1.3,3.56,1.3l.32,1.42v1.9l-2.26.63-1.26.16-.32-1.58Z"/><path class="cls-7" d="M61.82,72.7s3.68-1.63,4.05-1.51,2.29,1,2.29,1l.76,1.11V74.8l-1.87.49-1,.13-.25-1.24Z"/><polygon class="cls-2" points="9.99 61.9 11.49 64.73 11.82 66.9 13.66 67.57 13.82 69.07 14.16 71.07 13.82 72.4 9.68 76.82 7.23 82.63 9.01 75.82 12.82 71.57 12.49 68.9 11.32 67.73 10.82 64.73 9.99 61.9"/><polygon class="cls-2" points="74.16 66.4 71.99 67.57 70.16 68.57 68.16 67.9 66.33 67.4 64.49 67.23 63.33 66.73 61.49 67.73 58.16 70.9 62.49 68.23 63.49 67.57 65.66 68.07 67.16 68.4 69.99 69.07 71.99 69.23 74.16 66.4"/><polygon class="cls-2" points="1.87 66.33 -0.3 67.49 -2.13 68.49 -4.13 67.83 -5.97 67.33 -7.8 67.16 -8.97 66.66 -10.8 67.66 -14.13 70.83 -9.8 68.16 -8.8 67.49 -6.63 67.99 -5.13 68.33 -2.3 68.99 -0.3 69.16 1.87 66.33"/><path class="cls-4" d="M67,20.82,63,25.9l.25.83.5.25,1.84,1.09,4.66-.5-4.41.83-1.5.83,4,5.67-4.42-5.42-.83-.08-.67,1a6,6,0,0,1-.83-.17,2.61,2.61,0,0,1-.67-.5l-1.5.25-.92,1.42L55,35.54l3.78-5.72L57.91,29l-.42-.91-1.42.08-4.25-.08,5.5-.34,1.17-.16.25-.59.67-.25-3.49-5.84,3.91,5.51,1.5-.17,1,.17S66.49,20.57,67,20.82Z"/><path class="cls-8" d="M61,26.48l-.59.15-.76.19-.89,1.55.62,1.11,2,.56,1.26-.67.89-.89.18-1.66A11.17,11.17,0,0,1,62,26.65,5.4,5.4,0,0,0,61,26.48Z"/><path class="cls-7" d="M61,26.9l-.54.11-.71.14-.83,1.17.58.83,1.83.89,1.17-1,.84-.67.16-1.25-1.5-.5C61.74,26.57,61,26.9,61,26.9Z"/><polygon class="cls-8" points="60.66 27.57 59.83 28.07 60.49 29.07 60.99 28.9 61.49 28.57 62.58 28.15 61.66 27.73 60.66 28.82 60.66 27.57"/><path class="cls-4" d="M60.74,46l-1.33-.16s-4.92-7.73-5.3-7.63l4.3,6.71-.17,1.17L56.82,46l-5.25-.66,5.92,1.08-.58,1.33-.42,1.42-2.67,3.67,2.84-3.17,1.42-1.75,1.16.75,1.5-.25.25-.58.5-.34,1.75.5,2.88,4.64-2.54-5.39,5.33-1.75-6.42.75.92-1,6-7-6.36,6.49L61.41,45.9Z"/><path class="cls-7" d="M59.58,46.65l-1,.33.16,1.09s.84.41,1.09.33,1.33-.33,1.16-.58,0-1.09,0-1.09Z"/><path class="cls-8" d="M59.33,46.82l-.34.41s.09.34.34.42a1.81,1.81,0,0,0,.83-.17l.08-.41Z"/><polygon class="cls-4" points="52.99 55.57 55.07 61.32 54.91 62.07 54.24 62.15 46.68 64.71 54.74 62.4 55.74 63.4 55.57 68.32 56.24 63.48 59.66 67.98 56.99 63.15 62.41 62.65 56.99 62.57 65.49 56.07 56.99 61.48 55.91 60.82 52.99 55.57"/><polygon class="cls-8" points="55.66 61.4 55.41 61.82 55.41 62.57 56.07 63.07 56.66 62.4 56.49 61.65 55.66 61.4"/><path class="cls-4" d="M18.73,20.17l5.16,9.11L21.62,37S6,38.59,4.91,36c-.26-.66-2.12-8-2.12-8l3.83-7S17.4,21.11,18.73,20.17Z"/><path class="cls-7" d="M22.18,28.73l-2.87,7.36c-5.27.55-12.7.63-13.32-.91-.18-.45-1.11-4.61-1.69-7.25.14-.28,2.77-5.76,3-6.29,2,.12,8.83.46,11-.2C18.69,22.1,22,28.37,22.18,28.73Z"/><path class="cls-8" d="M21.51,28.54l.12.22L19,35.62c-6.76.67-11.71,0-12-.85A50.65,50.65,0,0,1,4.83,28c.14-.29,2.68-5.58,2.81-5.84,2.21.13,8,.39,10.44-.14Z"/><path class="cls-6" d="M21.07,28.77h0v0c-.15.38-2.11,6.09-2.3,6.58C12,36,7.4,35.26,6.91,34.77c-.14-.41-.82-3.35-1.56-6.72.14-.28,2.06-5.42,2.29-5.9,2.38.14,7.6.85,10.16.41C18.11,23.13,21.07,28.77,21.07,28.77Z"/><path class="cls-4" d="M20.53,28.82c-.14.37-2.09,5.37-2.28,5.85-6.38.58-10.26.09-10.92-.24-.16-.59-.72-3-1.45-6.32l2.37-4.93a57.38,57.38,0,0,0,9.27-.09Z"/><path class="cls-8" d="M18,25.12l2,3.73c-.14.38-1.88,4.83-2.08,5.34-6,.52-9.36.08-10.15-.15-.1-.47-1.28-5.57-1.35-5.87.13-.27,1.81-4.24,2-4.72a59.33,59.33,0,0,0,8.79.16C17.45,24,18,25.12,18,25.12Z"/><path class="cls-4" d="M17.58,25.35h0s2.21,3.14,2.4,3.5c-.15.39-2.34,4.64-2.43,4.87a37.56,37.56,0,0,1-9.38-.11c-.12-.52-1.17-5.09-1.24-5.38.13-.26,1.45-4,1.68-4.45,2.09.1,5.79.62,8.33.36Z"/><path class="cls-7" d="M17.13,25.58h0s1.57,3,1.75,3.34L17.2,33.24a38.39,38.39,0,0,1-8.62-.06c-.12-.55-1-4.59-1.12-4.89l1.71-3.57a61,61,0,0,0,7.48-.06Z"/><path class="cls-4" d="M13.11,39.91,5.67,38.39,4.87,46l3,6.67s4.55,1.56,7.25,1.26a57.61,57.61,0,0,0,6.49-1.18c.54-.15,3.29-6.76,3.29-6.76l-4.19-6.45Z"/><path class="cls-7" d="M23.35,45.77a44,44,0,0,1-2.07,6.51c-.27,0-.91,0-1.53.06-1.25,0-2.95,0-4.53.21a36.28,36.28,0,0,1-7-.33c-.2-.44-2.73-6.14-2.81-6.33s.64-4.72.74-5.46l6.81.62L20.36,40Z"/><path class="cls-8" d="M22.79,45.81a50.36,50.36,0,0,1-1.89,6l-1.16,0c-1.26,0-3,0-4.59.22a34.48,34.48,0,0,1-6.52-.29L6,45.84c0-.19.56-4.19.66-4.92L13,41.5l7-1C20.32,41.05,22.66,45.57,22.79,45.81Z"/><path class="cls-6" d="M21.84,45.11a6.1,6.1,0,0,1,.73.76,39.8,39.8,0,0,1-2.07,5.55l-.79,0c-1.26,0-3,0-4.63.22a38.34,38.34,0,0,1-6.44,0c-.2-.45-2-5.7-2.12-5.88s.32-4,.42-4.73c.9.08,6.05.45,6.05.45s6-.4,6.71-.51Z"/><path class="cls-7" d="M21.34,45.28h0l.32.61c-.58,2.16-1.18,4.1-1.56,5.1h-.41c-1.26,0-3,0-4.68.23A30.59,30.59,0,0,1,9.42,51L7.07,45.73c0-.18.42-3.13.51-3.83l5.44.5,6.35-.91Z"/><path class="cls-7" d="M20.85,45.46l.25.48c-.52,1.89-1,3.59-1.41,4.62h0c-1.28,0-3,0-4.73.23a26.91,26.91,0,0,1-5.13-.19c-.21-.46-2.11-4.75-2.19-4.93s.35-2.6.44-3.27l5,.45,6-.86Z"/><path class="cls-8" d="M20.35,45.63l.18.34-1.26,4.15c-1.25,0-2.82.05-4.41.23a26.79,26.79,0,0,1-4.66-.16c-.17-.4-1.95-4.39-2-4.57s.28-2.09.37-2.73l4.52.41,5.66-.81Z"/><path class="cls-4" d="M19.85,45.81,20,46c-.07.25-.95,3.15-1.12,3.68-1.24,0-2.63.06-4.05.22a21.5,21.5,0,0,1-4.59.28c-.17-.4-1.4-4.45-1.48-4.63S8.93,44,9,43.38c.83.08,4.05-.08,4.05-.08A20.68,20.68,0,0,1,18.39,43Z"/><path class="cls-7" d="M19.36,46l0,.07c-.06.23-.83,2.74-1,3.22-1.19,0-2.43,0-3.7.19A22.27,22.27,0,0,1,11,49.35L9.27,45.51l.22-1.64,3.6.33,5-.72Z"/><path class="cls-4" d="M66.74,89.57h-12l-4.67-7.84,2.54-13c3-.17,8.8,6.54,9.63,7.88C62.24,76.57,67.41,89.07,66.74,89.57Z"/><path class="cls-7" d="M50.6,81.65,55,89.07H66.26c-.22-1.45-2.34-7.14-4.48-12.31-.79-1.25-6-7.3-8.77-7.54C52.84,70,50.68,81.29,50.6,81.65Z"/><path class="cls-8" d="M51.13,81.56l4.18,7H65.64C65.14,86.7,63.41,82,61.32,77c-.65-1-5.6-7.15-8.31-7.73C52.82,70.11,51.21,81.21,51.13,81.56Z"/><path class="cls-6" d="M51.49,81.48c.19.31,3.84,6.14,4.1,6.59.51,0,8.77.25,9.9.25-.65-2.17-2.79-6.71-4.63-11.18-.52-.79-5-6.7-7.58-7.54C53.08,70.55,51.57,81.13,51.49,81.48Z"/><path class="cls-7" d="M53.13,77s-.48,4.17-.56,4.52c.19.31,3,5.65,3.31,6.09h8.4c-.75-2.31-2.2-6.17-3.89-10.24-.4-.61-3.77-5.13-6.26-6.17C53.94,72.06,53.13,77,53.13,77Z"/><path class="cls-4" d="M53.62,77.07s-.82,3.87-.9,4.22l3.44,5.78h7.42c-.8-2.38-1.69-6.11-3.19-9.74a35.91,35.91,0,0,0-6-3.81Z"/><path class="cls-7" d="M54.11,77.17s-1.31,3.77-1.39,4.12c.19.31,3.5,4.89,3.73,5.28h6.42c-.81-2.36-2-5.55-3.37-8.78a26.64,26.64,0,0,0-4.78-3.51C54.54,75.15,54.11,77.17,54.11,77.17Z"/><polygon class="cls-4" points="52.61 68.69 55.57 78.15 54.24 78.32 54.07 79.48 50.32 81.65 54.24 80.07 55.07 81.57 56.41 82.57 56.57 84.07 54.74 89.07 56.91 84.32 58.33 84.57 60.41 84.9 66.58 89.07 60.83 84.65 59.16 82.9 58.41 82.32 59.08 81.4 59.08 80.73 58.58 79.73 57.74 79.57 59.58 78.4 61.74 76.48 57.82 78.98 56.49 77.82 55.99 77.15 52.61 68.69"/><path class="cls-8" d="M57.57,79.57l-.5-.42L55.74,79l-.5,1,.83,2.09a4.6,4.6,0,0,0,1,.33,7.11,7.11,0,0,0,1.17-.33L58.58,81l-.76-1Z"/><path class="cls-7" d="M57.24,79.32l-.5-.42-1.33-.17-.5,1,.83,2.09a4.6,4.6,0,0,0,1,.33,7.11,7.11,0,0,0,1.17-.33l.33-1.09-.75-1Z"/><polygon class="cls-8" points="56.57 79.65 55.74 79.4 55.66 80.4 56.16 80.82 56.57 80.73 57.41 80.9 57.74 80.4 57.16 80.32 56.24 79.98 56.57 79.65"/><path class="cls-4" d="M5.73,90.91l13.05-.73,4.57-8.26L20.63,69.65c-3.27,0-10,6.35-10.86,7.76C9.77,77.41,5,90.45,5.73,90.91Z"/><path class="cls-7" d="M22.76,81.86l-4.32,7.83-12.22.68c.14-1.48,2.08-7.4,4.07-12.8.77-1.31,6.9-6.94,9.94-7.35C20.47,71,22.66,81.5,22.76,81.86Z"/><path class="cls-8" d="M22.18,81.8,18.1,89.19l-11.23.64A120.82,120.82,0,0,1,10.8,77.74c.64-1.07,6.52-6.77,9.43-7.52C20.5,71.11,22.08,81.45,22.18,81.8Z"/><path class="cls-6" d="M21.79,81.75c-.18.33-3.77,6.48-4,7-.55,0-9.52.8-10.75.86.57-2.24,2.59-7,4.31-11.65.5-.84,5.88-6.27,8.65-7.29C20.25,71.58,21.68,81.4,21.79,81.75Z"/><path class="cls-7" d="M19.71,77.25s.79,4.21.9,4.57c-.18.32-2.94,5.93-3.19,6.39l-9.14.52c.66-2.4,2-6.42,3.55-10.66a30.18,30.18,0,0,1,7.31-5.81A50,50,0,0,1,19.71,77.25Z"/><path class="cls-4" d="M19.19,77.39s1.14,3.89,1.25,4.24c-.18.33-3.14,5.69-3.37,6.09L9,88.18c.71-2.47,1.43-6.32,2.82-10.11a40.6,40.6,0,0,1,6.3-4.25Z"/><path class="cls-7" d="M18.66,77.52s1.67,3.76,1.78,4.11c-.18.33-3.48,5.19-3.71,5.6l-7,.39c.74-2.45,1.85-5.77,3.09-9.14a29.57,29.57,0,0,1,5-3.86Z"/><polygon class="cls-4" points="20.63 69.65 17.13 78.61 18.59 78.7 18.85 79.87 23.07 81.85 18.7 80.48 17.9 82.06 16.51 83.16 16.43 84.69 18.75 89.67 16.08 84.97 14.56 85.31 12.31 85.78 5.88 90.39 11.85 85.55 13.54 83.66 14.32 83.02 13.54 82.13 13.49 81.45 13.97 80.4 14.86 80.18 12.79 79.11 10.31 77.29 14.73 79.6 16.11 78.33 16.61 77.62 20.63 69.65"/><path class="cls-8" d="M15.05,80.17l.51-.45L17,79.47l.61,1-.77,2.16a5.32,5.32,0,0,1-1.06.41,8.61,8.61,0,0,1-1.3-.27l-.43-1.08.75-1.07Z"/><path class="cls-7" d="M15.39,79.9l.52-.45,1.44-.26.61,1-.77,2.17a5,5,0,0,1-1.07.4,7.58,7.58,0,0,1-1.29-.27L14.4,81.4l.75-1.06Z"/><polygon class="cls-8" points="16.14 80.2 17.03 79.89 17.18 80.9 16.67 81.36 16.21 81.3 15.31 81.52 14.92 81.03 15.55 80.91 16.52 80.52 16.14 80.2"/><path class="cls-4" d="M66.74,17.5h-12L50.07,9.67l2.54-13c3-.17,8.8,6.55,9.63,7.88C62.24,4.5,67.41,17,66.74,17.5Z"/><path class="cls-7" d="M50.6,9.58,55,17H66.26C66,15.56,63.92,9.86,61.78,4.69c-.79-1.24-6-7.3-8.77-7.53C52.84-2,50.68,9.22,50.6,9.58Z"/><path class="cls-8" d="M51.13,9.49l4.18,7H65.64c-.5-1.87-2.23-6.56-4.32-11.62-.65-1-5.6-7.15-8.31-7.72C52.82-2,51.21,9.14,51.13,9.49Z"/><path class="cls-6" d="M51.49,9.42c.19.31,3.84,6.13,4.1,6.58.51,0,8.77.25,9.9.25-.65-2.17-2.79-6.71-4.63-11.18-.52-.79-5-6.7-7.58-7.54C53.08-1.51,51.57,9.07,51.49,9.42Z"/><path class="cls-7" d="M53.13,4.9s-.48,4.16-.56,4.52c.19.3,3,5.64,3.31,6.08h8.4c-.75-2.31-2.2-6.17-3.89-10.24C60,4.65,56.62.13,54.13-.91,53.94,0,53.13,4.9,53.13,4.9Z"/><path class="cls-4" d="M53.62,5s-.82,3.87-.9,4.23L56.16,15h7.42c-.8-2.38-1.69-6.11-3.19-9.74a35.91,35.91,0,0,0-6-3.81Z"/><path class="cls-7" d="M54.11,5.1S52.8,8.87,52.72,9.23c.19.3,3.5,4.89,3.73,5.27h6.42c-.81-2.36-2-5.55-3.37-8.78a26.64,26.64,0,0,0-4.78-3.51C54.54,3.08,54.11,5.1,54.11,5.1Z"/><polygon class="cls-4" points="52.61 -3.38 55.57 6.08 54.24 6.25 54.07 7.42 50.32 9.58 54.24 8 55.07 9.5 56.41 10.5 56.57 12 54.74 17 56.91 12.25 58.33 12.5 60.41 12.83 66.58 17 60.83 12.58 59.16 10.83 58.41 10.25 59.08 9.33 59.08 8.67 58.58 7.67 57.74 7.5 59.58 6.33 61.74 4.42 57.82 6.92 56.49 5.75 55.99 5.08 52.61 -3.38"/><path class="cls-8" d="M57.57,7.5l-.5-.42-1.33-.16-.5,1L56.07,10a4.6,4.6,0,0,0,1,.33A7.11,7.11,0,0,0,58.24,10l.34-1.08-.76-1Z"/><path class="cls-7" d="M57.24,7.25l-.5-.42-1.33-.16-.5,1,.83,2.08a4.6,4.6,0,0,0,1,.33,7.11,7.11,0,0,0,1.17-.33l.33-1.08-.75-1Z"/><polygon class="cls-8" points="56.57 7.58 55.74 7.33 55.66 8.33 56.16 8.75 56.57 8.67 57.41 8.83 57.74 8.33 57.16 8.25 56.24 7.92 56.57 7.58"/><path class="cls-4" d="M5.73,18.85l13.05-.74,4.57-8.26L20.63-2.42c-3.27,0-10,6.35-10.86,7.76C9.77,5.34,5,18.38,5.73,18.85Z"/><path class="cls-7" d="M22.76,9.79l-4.32,7.83-12.22.69c.14-1.49,2.08-7.41,4.07-12.8.77-1.32,6.9-6.94,9.94-7.36C20.47-1,22.66,9.44,22.76,9.79Z"/><path class="cls-8" d="M22.18,9.74,18.1,17.12l-11.23.64A122.54,122.54,0,0,1,10.8,5.67c.64-1.07,6.52-6.77,9.43-7.52C20.5-.95,22.08,9.38,22.18,9.74Z"/><path class="cls-6" d="M21.79,9.68c-.18.33-3.77,6.49-4,7-.55,0-9.52.8-10.75.87.57-2.25,2.59-7,4.31-11.66C11.82,5,17.2-.43,20-1.45,20.25-.49,21.68,9.33,21.79,9.68Z"/><path class="cls-7" d="M19.71,5.18s.79,4.21.9,4.57c-.18.32-2.94,5.93-3.19,6.39l-9.14.52c.66-2.4,2-6.42,3.55-10.66A30.18,30.18,0,0,1,19.14.19,50,50,0,0,1,19.71,5.18Z"/><path class="cls-4" d="M19.19,5.32s1.14,3.89,1.25,4.24c-.18.33-3.14,5.69-3.37,6.09L9,16.11C9.72,13.64,10.44,9.79,11.83,6a40.6,40.6,0,0,1,6.3-4.25Z"/><path class="cls-7" d="M18.66,5.45s1.67,3.76,1.78,4.11c-.18.33-3.48,5.2-3.71,5.6l-7,.39c.74-2.44,1.85-5.76,3.09-9.14a29.57,29.57,0,0,1,5-3.86Z"/><polygon class="cls-4" points="20.63 -2.42 17.13 6.54 18.59 6.63 18.85 7.8 23.07 9.78 18.7 8.41 17.9 9.99 16.51 11.09 16.43 12.62 18.75 17.6 16.08 12.9 14.56 13.24 12.31 13.71 5.88 18.33 11.85 13.48 13.54 11.6 14.32 10.96 13.54 10.06 13.49 9.38 13.97 8.34 14.86 8.12 12.79 7.04 10.31 5.22 14.73 7.53 16.11 6.26 16.61 5.55 20.63 -2.42"/><path class="cls-8" d="M15.05,8.11l.51-.46L17,7.4l.61,1-.77,2.17a5.43,5.43,0,0,1-1.06.4,8.61,8.61,0,0,1-1.3-.27l-.43-1.08.75-1.07Z"/><path class="cls-7" d="M15.39,7.83l.52-.45,1.44-.26.61,1-.77,2.17a5,5,0,0,1-1.07.4,7.75,7.75,0,0,1-1.29-.26L14.4,9.33l.75-1.06Z"/><polygon class="cls-8" points="16.14 8.13 17.03 7.82 17.18 8.84 16.67 9.29 16.21 9.23 15.31 9.45 14.92 8.96 15.55 8.84 16.52 8.45 16.14 8.13"/><path class="cls-4" d="M7.28,21.37l4,5.08-.25.83-.5.25L8.69,28.62,4,28.12,8.44,29l1.5.83-4,5.67L10.36,30l.83-.08.67,1a6,6,0,0,0,.83-.17,2.61,2.61,0,0,0,.67-.5l1.5.25L15.78,32l3.53,4.14-3.78-5.72.83-.84.42-.91,1.41.08,4.25-.08-5.5-.34-1.16-.16-.25-.59-.67-.25,3.49-5.84L14.44,27l-1.5-.17-1,.17S7.78,21.12,7.28,21.37Z"/><path class="cls-8" d="M13.31,27l.59.15.75.19.9,1.55L14.92,30l-2,.56-1.26-.67L10.8,29l-.18-1.66a11.17,11.17,0,0,0,1.66-.17A5.4,5.4,0,0,1,13.31,27Z"/><path class="cls-7" d="M13.28,27.45l.54.11.71.14.83,1.17-.58.83L13,30.59l-1.17-1L10.94,29l-.16-1.25,1.5-.5C12.53,27.12,13.28,27.45,13.28,27.45Z"/><path class="cls-4" d="M14,46.32l1.43-.15S19.94,39.9,20.36,40l-3.81,5.36.18,1,1.53-.07,5.66-.6-6.38,1,.63,1.18.45,1.27,2.87,3.26-3-2.82L16.91,48l-1.26.67L14,48.47,13.77,48l-.54-.3-1.89.45L8.23,52.22,11,47.43,5.23,45.87l6.92.67-1-.89L6,40.23l5.57,5,1.8,1Z"/><path class="cls-7" d="M15.29,46.91l1.08.3-.18,1a3.55,3.55,0,0,1-1.17.3c-.27-.08-1.43-.3-1.25-.52s0-1,0-1Z"/><path class="cls-8" d="M15.56,47.06l.36.37a.57.57,0,0,1-.36.37,2.36,2.36,0,0,1-.9-.15l-.09-.37Z"/><path class="cls-4" d="M22,54.25l-6,1.6L7,54.33l4.54,7,.17,3.79,3,4.41a13.42,13.42,0,0,1,3.5-.15c1,.25,4.38-2.14,4.38-2.14L28,65.11Z"/><path class="cls-7" d="M26.37,65.08l-3.91,1.7C21,67.47,19,68.13,18.53,68c-.89-.22-2.78-.43-3.34-.49L13,64.35c0-.14-1-3.18-1-3.18s-1.75-3.38-2.59-5l6.64.88,5.22-1.18Z"/><path class="cls-8" d="M24.37,62.48l1.3,2.36-3.41,1.48a12,12,0,0,1-3.61,1.19A31,31,0,0,0,15.47,67l-2-2.91c-.05-.14-1-3.11-1-3.11a26.5,26.5,0,0,1-2.79-4.7c1.4.18,6.38,1.26,6.38,1.26l4.94-1.12C21.39,57.05,24.37,62.48,24.37,62.48Z"/><path class="cls-6" d="M23.93,62.72h0a15.53,15.53,0,0,1,1.56,1.93c-.73.32-3.43,1.21-3.43,1.21-1.79.83-2.92,1.63-3.15,1.62a16.73,16.73,0,0,0-3.15-.91l-1.82-2.66-.93-3a17,17,0,0,1-3.27-4.56c1.33.17,6.41,1.77,6.41,1.77S20.2,57,20.83,56.82C21.15,57.41,23.93,62.72,23.93,62.72Z"/><path class="cls-4" d="M23.5,63l.76,1.4-2.4,1a13.7,13.7,0,0,1-3.14,1.11c-.52-.12-1.43-.26-2.67-.41-.16-.22-1.57-2.29-1.65-2.41s-.91-3-.91-3a21,21,0,0,1-2.16-3.41c1.23.16,4.84,1.28,4.84,1.28l4.38-1Z"/><path class="cls-8" d="M23.06,63.2l.5.92-1.9.82A14.81,14.81,0,0,1,18.71,66l-2.37-.37-1.49-2.17c0-.14-.89-2.89-.89-2.89s-.9-1.62-1.3-2.43a29.44,29.44,0,0,1,3.53,1s3.1-.39,3.72-.53C20.23,59.15,23.06,63.2,23.06,63.2Z"/><path class="cls-4" d="M22.62,63.44l.24.44-1.4.6A28.87,28.87,0,0,0,18.71,66c-.15,0-1.78-.78-2.08-.83l-1.32-1.93c0-.14-1.35-2.67-1.35-2.67a5.74,5.74,0,0,0-.3-1.76c.93.12,2.33.41,2.33.41s3.44-.35,4-.49Z"/><path class="cls-7" d="M22.16,63.64l-.9.39a14.28,14.28,0,0,1-2.59,1l-1.75-.27L15.76,63l-.85-2.77,0,.18s-.12-.3-.22-.52l1.52.2,3.54-.8Z"/><polygon class="cls-4" points="21.57 55.32 19.49 61.07 19.66 61.82 20.32 61.9 26.82 65.07 19.82 62.15 18.82 63.15 18.99 68.07 18.32 63.23 14.91 67.73 17.57 62.9 12.16 62.4 17.57 62.32 9.07 55.82 17.57 61.23 18.66 60.57 21.57 55.32"/><polygon class="cls-8" points="18.91 61.15 19.16 61.57 19.16 62.32 18.49 62.82 17.91 62.15 18.07 61.4 18.91 61.15"/><polygon class="cls-4" points="1.12 36.29 -2.13 36.63 -0.33 45.57 -3.14 55.38 0.86 57.05 4.86 55.72 2 46.9 3 37.9 1.12 36.29"/><path class="cls-7" d="M-1.61,37c0,.67,1.78,8.67,1.78,8.67S-2.2,54.31-2.5,55.11l3.38,1.4,3.27-1.09C3.72,54.56,1.48,47,1.48,47s.91-8.35,1-8.87l-1.23-1C.92,37.23-1.21,36.85-1.61,37Z"/><path class="cls-8" d="M-1.09,37.34c0,.66,1.77,8.38,1.77,8.38S-1.56,54-1.86,54.83L.9,56l2.55-.85C3,54.28.71,46.82.71,46.82c.72-5.06.91-6.33,1.22-8.5l-.8-.63C.9,37.77-.8,37.24-1.09,37.34Z"/><path class="cls-4" d="M1,38.25c.15.11.22.17.36.29,0,.2-.18,3.29-.35,4.51C1,41.68-.56,38-.57,37.69-.5,37.67,1,38.27,1,38.25ZM.57,47.4c.1.19,2.21,6.79,2.62,7.61-.32.11-2,.35-2.27.44-.25-.1-2.3-.42-2.78-.62C-1.64,54.25,0,49,.57,47.4Z"/><path class="cls-7" d="M.32,49.48s-.67,4.2-.9,4.8l1.51.63L2,54.55c-.31-.62-.8-5.8-1.33-6.86A15.7,15.7,0,0,0,.32,49.48Z"/><polygon class="cls-4" points="-5.05 8.9 -1.05 7.57 5.85 10.29 3.95 17.23 0.62 17.57 -2.71 17.57 -3.71 12.57 -5.05 8.9"/><path class="cls-7" d="M-4.4,9.21l1.15,3.19c0,.06.71,3.51,1,4.67H.62l2.81-.29c0-.79-.27-6.34-.3-6.88l-4.2-1.8Z"/><path class="cls-8" d="M-4.4,9.21c.25.7,1.62,3,1.62,3s.66,3.23.88,4.34H.62l-.05,0c.37-.08,1-.14,2.23-.27h.11c0-.78,2.48-5.18,2.46-5.71-.48-.2-6.17-1.86-6.46-2C-1.36,8.73-3.74,9-4.4,9.21Z"/><path class="cls-4" d="M-3.11,9.84c.23.65.8,2.21.8,2.21s0,.07.73,3.55a3,3,0,0,0-.32,1,19,19,0,0,0,2.52-.5l-.15.05,1.92-.23c0-.75,2.15-4.52,2.12-5-.46-.2-5.33-1.55-5.63-1.68Z"/><path class="cls-7" d="M-2.47,10.15c.22.59.63,1.73.63,1.73s0,.11.75,3.62a.56.56,0,0,1,0,.07H.62v0l1.25-.15c0-.72,1.1-3.54,1.08-4-.45-.2-3.8-1.58-4.09-1.7Z"/><path class="cls-4" d="M-2,11.11c.16.38.49,1.13.49,1.13s0,.07.58,2.35v.05H.44v0l1-.1c0-.47-.14-2.63-.16-3l-2.2-.79Z"/><polygon class="cls-4" points="-0.91 23.53 -3.71 17.88 3.21 19.11 4.55 22.57 1.65 28.57 2.99 35.57 -1.01 34.9 0.32 28.23 -0.91 23.53"/><path class="cls-7" d="M-.42,23.42l1.25,4.8L-.42,34.49,2.36,35c-.22-1.14-1.22-6.41-1.22-6.41S3.69,23,3.77,22.68,3,19.9,2.83,19.53c-.4-.09-4.95-.77-5.9-1C-2.88,19.52-.42,23.4-.42,23.42Z"/><path class="cls-8" d="M-2.43,19.2c.8.18,4.52.67,4.87.75.11.33.59,3,.66,3.17A20.92,20.92,0,0,0,1,27c-.33-1.28-1-3.72-1-3.74S-2.26,20.07-2.43,19.2ZM1,30.2c.29,1.52,1.13,3.68,1.29,4.49-.6-.1-1.6-.53-2.07-.61C.29,33.51.62,31.83,1,30.2Z"/><path class="cls-4" d="M-1.48,19.78c.56.12,3.27.54,3.53.6,0,.05-.36,2-.3,2.23S1.38,25.83,1,27c-.18-.7-.48-3.82-.49-3.85A23.29,23.29,0,0,1-1.48,19.78ZM1.11,30.69c.06.31,1.05,3.59,1.13,4-.18,0-1.32-1-1.48-1l.08-.38S1.09,30.82,1.11,30.69Z"/><polygon class="cls-2" points="1.5 66.4 -0.67 67.57 -2.5 68.57 -4.5 67.9 -6.33 67.4 -8.17 67.23 -9.33 66.73 -11.17 67.73 -14.5 70.9 -10.17 68.23 -9.17 67.57 -7 68.07 -5.5 68.4 -2.67 69.07 -0.67 69.23 1.5 66.4"/><path class="cls-4" d="M11.49-1.1S8.83-3.77,7.83-3.43s-6,1.33-6,1.33L1.16.9.49,7.47,4.16,8.8l2.66.33L7.49,5.8Z"/><path class="cls-7" d="M10.35-.51S8.28-2.59,7.5-2.33s-4.68,1-4.68,1L2.3,1.05,1.63,6.73l2.86,1L6.57,8l.52-2.6Z"/><path class="cls-8" d="M9.47,0S7.85-1.67,7.24-1.47s-3.65.81-3.65.81L3.18,1.16l-.67,5L4.74,7l1.63.2L7.44,2.58Z"/><path class="cls-4" d="M8.77.3S7.71-1.63,7.24-1.47s-3,1.3-3,1.3L3.88,1.25,3.21,5.71,5,6.35l1.26.15,1-4.14Z"/><path class="cls-7" d="M8.23.58S7.32-.93,7-.81s-2.29,1-2.29,1L4.42,1.32V2.8L5.1,5.86l1,.12L7,2.18Z"/><path class="cls-2" d="M23.83,7.17s-2-7.5-1.5-8.67l2.5,8.67L25,8.5Z"/><path class="cls-3" d="M23.33,6.83s-2-7.5-1.5-8.66l2.5,8.66.16,1.34Z"/><path class="cls-4" d="M36.49,7.32C33.6,7.34,27.7,9.24,26,9.85L22.83-2.43,37-7.43l13.25,4.5L47.73,9.24S40.78,7.29,36.49,7.32Z"/><path class="cls-5" d="M23.45-2.12c.27.81,3.1,9.43,3.37,10.24a48.54,48.54,0,0,1,9.73-1.55A61.53,61.53,0,0,1,46.88,7.91c.2-.79,2.55-9.72,2.76-10.52L37-6.9Z"/><path class="cls-6" d="M33.85-5s-9.67,3-10,3.12c.11.35,3.35,8.9,3.45,9.22a49.84,49.84,0,0,1,9.2-1.17c3.38,0,8.13,1.2,10.1,1.53.08-.33,2.13-9.46,2.22-9.81C48.46-2.27,37.16-6.72,37-6.77S33.85-5,33.85-5Z"/><path class="cls-7" d="M34-4.77,24.71-1.51l2.77,8.45a50.16,50.16,0,0,1,9-.9,67.38,67.38,0,0,1,9.62.73c.2-.76,2.09-7.95,2.3-8.73L37-5.84Z"/><path class="cls-8" d="M34.11-4.29h0L25.34-1.2c.26.79,1.82,6.85,2.48,7.57a51.08,51.08,0,0,1,8.66-1,61.83,61.83,0,0,1,9.29.89l2.07-7.85C47.12-1.88,37.32-5,37-5.1,36.71-5,34.11-4.29,34.11-4.29Z"/><path class="cls-6" d="M34.18-4.11l-8.59,3L28,6.14a49,49,0,0,1,8.52-.82A61,61,0,0,1,45.62,6c.09-.33,1.89-7.16,2-7.5L37-5.1Z"/><path class="cls-7" d="M34.28-3.82,26-.89l2.2,6.68a51.85,51.85,0,0,1,8.31-1,59.72,59.72,0,0,1,8.93.83c.19-.73,1.64-6.21,1.83-7L37-4.79Z"/><path class="cls-9" d="M34.45-3.35,26.59-.58c.25.75,1.69,5.14,1.91,5.81a49.9,49.9,0,0,1,8-.91A57.17,57.17,0,0,1,45,5.09L46.63-1c-3.05-.36-9.2-3.13-9.62-3.27Z"/><path class="cls-8" d="M34.78-2.41,27.85,0,29.18,4.1a49.58,49.58,0,0,1,7.28-.78A54.62,54.62,0,0,1,44.29,4c.17-.63,1-3.76,1.14-4.32L37-3.2Z"/><path class="cls-6" d="M34.84-2.22h0L28.1.16l1.22,3.72a49.79,49.79,0,0,1,7.14-.76,53.79,53.79,0,0,1,7.68.64c.08-.3,1-4,1-4.28C44.82-.63,37.14-2.94,37-3Z"/><path class="cls-4" d="M34.94-1.94h0L28.48.34c.18.58.88,2.7,1,3.2a49.21,49.21,0,0,1,6.94-.72,54.22,54.22,0,0,1,7.46.61L44.82,0,37-2.67Z"/><path class="cls-7" d="M35.11-1.46h0L29.1.65c.09.26.59,1.8.77,2.33a48.24,48.24,0,0,1,6.58-.66,53.1,53.1,0,0,1,7.09.57c.12-.47.55-2.08.68-2.59L37-2.14Z"/><path class="cls-4" d="M50-3,44.08-.1,41.41-.43l-.5-.75a4.2,4.2,0,0,0-1-.25c-.33,0-1.5.16-1.5.16L37.74-1l-.66-.08L37-7.43l-.66,6.08-.75.25h-.92l-.92-.17L33,.07,31.24.65,29,.15,23.16-2.43,28.74.82a5.82,5.82,0,0,0,1,1,8.89,8.89,0,0,0,1.59-.09l-.59,1.84-1.56.53L26.83,7.9l2.66-3.33,3-.84,1.92-.33,1.17.08.88.34.62.58L37,6.65l.5-2.25,1.92-.5,1.5-.33,1.75.91,4.5,3.67L43.08,3.57l-.09-2L42.74.73s1,.17,1.25,0Z"/><path class="cls-8" d="M36.62-.34l-1.79.9-.41,1.51,2,1.06,2.38-1.06L38.41.41A18.45,18.45,0,0,1,36.62-.34Z"/><path class="cls-7" d="M36.62-.06,35,.69l-.37,1.25,1.83,1.19,2.17-1.19L38.24.57S37.12.19,36.62-.06Z"/><polygon class="cls-2" points="50.82 -1.9 49.99 1.07 50.49 2.73 50.13 3.25 49.32 4.4 48.16 6.9 50.16 4.9 51.16 2.4 50.82 -1.9"/><polygon class="cls-3" points="51.65 -3.96 50.16 0.4 50.66 2.07 50.3 2.58 49.49 3.73 48.33 6.23 50.33 4.23 50.96 0.31 51.65 -3.96"/><path class="cls-4" d="M57.78-.94s3.45-2.78,4.45-2.44,9.28,1.21,9.28,1.21l.67,3v4L68,6.17l-2.66.33-1-2.94Z"/><path class="cls-7" d="M59-.71s2.77-1.83,3.55-1.57,8,.92,8,.92L71,1V4.1l-3.38,1-2.08.26-.52-2.6Z"/><path class="cls-8" d="M60.59,0s4.38-1.74,5-1.54,4.17.81,4.17.81l.4,1.82V3.53l-2.74.81-1.63.2-.4-2Z"/><path class="cls-4" d="M61.28.35s3.83-2,4.3-1.89,3.56,1.3,3.56,1.3l.32,1.42v1.9l-2.26.63-1.26.16-.32-1.58Z"/><path class="cls-7" d="M61.82.63S65.5-1,65.87-.87s2.29,1,2.29,1l.76,1.1V2.73l-1.87.49-1,.13-.25-1.23Z"/><polygon class="cls-2" points="9.99 -10.17 11.49 -7.33 11.82 -5.17 13.66 -4.5 13.82 -3 14.16 -1 13.82 0.33 9.68 4.75 7.23 10.56 9.01 3.75 12.82 -0.5 12.49 -3.17 11.32 -4.33 10.82 -7.33 9.99 -10.17"/><path class="cls-4" d="M66.74,17.5h-12L50.07,9.67l2.54-13c3-.17,8.8,6.55,9.63,7.88C62.24,4.5,67.41,17,66.74,17.5Z"/><path class="cls-7" d="M50.6,9.58,55,17H66.26C66,15.56,63.92,9.86,61.78,4.69c-.79-1.24-6-7.3-8.77-7.53C52.84-2,50.68,9.22,50.6,9.58Z"/><path class="cls-8" d="M51.13,9.49l4.18,7H65.64c-.5-1.87-2.23-6.56-4.32-11.62-.65-1-5.6-7.15-8.31-7.72C52.82-2,51.21,9.14,51.13,9.49Z"/><path class="cls-6" d="M51.49,9.42c.19.31,3.84,6.13,4.1,6.58.51,0,8.77.25,9.9.25-.65-2.17-2.79-6.71-4.63-11.18-.52-.79-5-6.7-7.58-7.54C53.08-1.51,51.57,9.07,51.49,9.42Z"/><path class="cls-7" d="M53.13,4.9s-.48,4.16-.56,4.52c.19.3,3,5.64,3.31,6.08h8.4c-.75-2.31-2.2-6.17-3.89-10.24C60,4.65,56.62.13,54.13-.91,53.94,0,53.13,4.9,53.13,4.9Z"/><path class="cls-4" d="M53.62,5s-.82,3.87-.9,4.23L56.16,15h7.42c-.8-2.38-1.69-6.11-3.19-9.74a35.91,35.91,0,0,0-6-3.81Z"/><path class="cls-7" d="M54.11,5.1S52.8,8.87,52.72,9.23c.19.3,3.5,4.89,3.73,5.27h6.42c-.81-2.36-2-5.55-3.37-8.78a26.64,26.64,0,0,0-4.78-3.51C54.54,3.08,54.11,5.1,54.11,5.1Z"/><polygon class="cls-4" points="52.61 -3.38 55.57 6.08 54.24 6.25 54.07 7.42 50.32 9.58 54.24 8 55.07 9.5 56.41 10.5 56.57 12 54.74 17 56.91 12.25 58.33 12.5 60.41 12.83 66.58 17 60.83 12.58 59.16 10.83 58.41 10.25 59.08 9.33 59.08 8.67 58.58 7.67 57.74 7.5 59.58 6.33 61.74 4.42 57.82 6.92 56.49 5.75 55.99 5.08 52.61 -3.38"/><path class="cls-8" d="M57.57,7.5l-.5-.42-1.33-.16-.5,1L56.07,10a4.6,4.6,0,0,0,1,.33A7.11,7.11,0,0,0,58.24,10l.34-1.08-.76-1Z"/><path class="cls-7" d="M57.24,7.25l-.5-.42-1.33-.16-.5,1,.83,2.08a4.6,4.6,0,0,0,1,.33,7.11,7.11,0,0,0,1.17-.33l.33-1.08-.75-1Z"/><polygon class="cls-8" points="56.57 7.58 55.74 7.33 55.66 8.33 56.16 8.75 56.57 8.67 57.41 8.83 57.74 8.33 57.16 8.25 56.24 7.92 56.57 7.58"/><path class="cls-4" d="M5.73,18.85l13.05-.74,4.57-8.26L20.63-2.42c-3.27,0-10,6.35-10.86,7.76C9.77,5.34,5,18.38,5.73,18.85Z"/><path class="cls-7" d="M22.76,9.79l-4.32,7.83-12.22.69c.14-1.49,2.08-7.41,4.07-12.8.77-1.32,6.9-6.94,9.94-7.36C20.47-1,22.66,9.44,22.76,9.79Z"/><path class="cls-8" d="M22.18,9.74,18.1,17.12l-11.23.64A122.54,122.54,0,0,1,10.8,5.67c.64-1.07,6.52-6.77,9.43-7.52C20.5-.95,22.08,9.38,22.18,9.74Z"/><path class="cls-6" d="M21.79,9.68c-.18.33-3.77,6.49-4,7-.55,0-9.52.8-10.75.87.57-2.25,2.59-7,4.31-11.66C11.82,5,17.2-.43,20-1.45,20.25-.49,21.68,9.33,21.79,9.68Z"/><path class="cls-7" d="M19.71,5.18s.79,4.21.9,4.57c-.18.32-2.94,5.93-3.19,6.39l-9.14.52c.66-2.4,2-6.42,3.55-10.66A30.18,30.18,0,0,1,19.14.19,50,50,0,0,1,19.71,5.18Z"/><path class="cls-4" d="M19.19,5.32s1.14,3.89,1.25,4.24c-.18.33-3.14,5.69-3.37,6.09L9,16.11C9.72,13.64,10.44,9.79,11.83,6a40.6,40.6,0,0,1,6.3-4.25Z"/><path class="cls-7" d="M18.66,5.45s1.67,3.76,1.78,4.11c-.18.33-3.48,5.2-3.71,5.6l-7,.39c.74-2.44,1.85-5.76,3.09-9.14a29.57,29.57,0,0,1,5-3.86Z"/><polygon class="cls-4" points="20.63 -2.42 17.13 6.54 18.59 6.63 18.85 7.8 23.07 9.78 18.7 8.41 17.9 9.99 16.51 11.09 16.43 12.62 18.75 17.6 16.08 12.9 14.56 13.24 12.31 13.71 5.88 18.33 11.85 13.48 13.54 11.6 14.32 10.96 13.54 10.06 13.49 9.38 13.97 8.34 14.86 8.12 12.79 7.04 10.31 5.22 14.73 7.53 16.11 6.26 16.61 5.55 20.63 -2.42"/><path class="cls-8" d="M15.05,8.11l.51-.46L17,7.4l.61,1-.77,2.17a5.43,5.43,0,0,1-1.06.4,8.61,8.61,0,0,1-1.3-.27l-.43-1.08.75-1.07Z"/><path class="cls-7" d="M15.39,7.83l.52-.45,1.44-.26.61,1-.77,2.17a5,5,0,0,1-1.07.4,7.75,7.75,0,0,1-1.29-.26L14.4,9.33l.75-1.06Z"/><polygon class="cls-8" points="16.14 8.13 17.03 7.82 17.18 8.84 16.67 9.29 16.21 9.23 15.31 9.45 14.92 8.96 15.55 8.84 16.52 8.45 16.14 8.13"/></pattern></defs><g class="cls-12"><g id="ART-base"><polygon class="cls-13" points="1045.59 409.21 672 693.84 304.5 413.5 315.96 673.42 673.5 1034.5 1034.5 671.5 1045.59 409.21"/><polygon class="cls-14" points="1045.59 409.21 672 693.84 673.88 870.03 1040.04 540.43 1045.59 409.21"/><polygon class="cls-15" points="1039.86 540.55 673.88 870.03 673.5 1034.5 1034.5 671.5 1039.86 540.55"/><path class="cls-16" d="M497.87,599.1C477.24,567.27,430.48,571,411.38,586S376.49,631.26,378,663.61c2,43.25,16.71,63.89,42.27,85.52,19.32,16.35,68.51,20.18,91.76,9.39s56.23-44.66,16.37-102.78C516.47,638.4,509.05,616.35,497.87,599.1Z"/><path class="cls-17" d="M472.9,635c-11.3-17.43-36.91-15.39-47.37-7.2s-19.11,24.81-18.31,42.53c1.08,23.69,9.16,35,23.16,46.84,10.58,9,37.52,11.06,50.25,5.15s30.8-24.46,9-56.3C483.09,656.54,479,644.46,472.9,635Z"/><g class="cls-18"><path class="cls-19" d="M446.43,647.18a4.23,4.23,0,0,0-5-4.57,10.83,10.83,0,0,0-6.17,5.18c-2.08,3.7-2.17,6-1.59,8.86.43,2.14,3.47,4.44,5.55,4.46s6-1.49,6.33-8C445.64,651.22,446.28,649.07,446.43,647.18Z"/><path class="cls-19" d="M428.26,675a4.23,4.23,0,0,0-5.91-3.32,10.78,10.78,0,0,0-4.84,6.43c-1.2,4.07-.76,6.36.44,9,.91,2,4.38,3.54,6.42,3.1s5.48-2.8,4.37-9.18C428.41,679.07,428.55,676.84,428.26,675Z"/><path class="cls-19" d="M454.87,648.49c-2.2-1.55-5.61-.18-6.72,1.24a6.24,6.24,0,0,0-.86,5.83c1,2.75,2.59,3.72,4.94,4.5,1.78.59,5.53-.35,7-1.61s3.26-4.24-.93-7C457.08,650.58,456.07,649.34,454.87,648.49Z"/><path class="cls-19" d="M450.87,661.49c-2.2-1.55-5.61-.18-6.72,1.24a6.24,6.24,0,0,0-.86,5.83c1,2.75,2.59,3.72,4.94,4.5,1.78.59,5.53-.35,7-1.61s3.26-4.24-.93-7C453.08,663.58,452.07,662.34,450.87,661.49Z"/><path class="cls-19" d="M432.53,660.4a3.53,3.53,0,0,0-5.73.66,9.77,9.77,0,0,0,0,7.06c1.27,3.51,2.74,4.91,4.9,6.17,1.64,1,4.8.27,6-1.08s2.31-4.81-1.72-8.77C434.74,663.25,433.69,661.59,432.53,660.4Z"/><path class="cls-19" d="M459,660.93a3.66,3.66,0,0,0-3.27.74,2,2,0,0,0-.68,2.11c.39.94,1.08,1.22,2.17,1.39a6.67,6.67,0,0,0,3.44-.89c.78-.51,1.75-1.65-.14-2.46C460,661.58,459.54,661.18,459,660.93Z"/><path class="cls-19" d="M470.05,689.44a1.59,1.59,0,0,0-1.87.35,1.66,1.66,0,0,0-.25,1.58,1.82,1.82,0,0,0,1.36,1.21,2.75,2.75,0,0,0,1.95-.45c.42-.35.91-1.16-.24-1.9C470.65,690,470.38,689.67,470.05,689.44Z"/><path class="cls-19" d="M436.08,701.16c-1.47-.23-2,.93-1.66,1.7a5.7,5.7,0,0,0,2.44,2.47,5.8,5.8,0,0,0,3.76.9,2,2,0,0,0,1.59-1.9c-.08-.77-.9-2.28-3.61-2.63C437.79,701.59,436.87,701.28,436.08,701.16Z"/><path class="cls-19" d="M439.92,686.86a4.24,4.24,0,0,0-5.8,3.51,10.84,10.84,0,0,0,3.21,7.38c3,3,5.16,3.79,8.05,4,2.18.2,5.24-2.06,5.85-4s.27-6.16-5.83-8.33C443.57,688.76,441.7,687.54,439.92,686.86Z"/><path class="cls-19" d="M443.58,679.14c-2.12,1.67-1.77,5.32-.72,6.79a6.24,6.24,0,0,0,5.34,2.48,6.79,6.79,0,0,0,5.72-3.46c1.08-1.54,1.24-5.4.46-7.2s-3.15-4.32-7-1.1C446.21,677.61,444.73,678.23,443.58,679.14Z"/><path class="cls-19" d="M454.91,686.66c-2.12,1.67-1.77,5.33-.72,6.8a6.24,6.24,0,0,0,5.34,2.48,6.79,6.79,0,0,0,5.72-3.46c1.07-1.54,1.24-5.4.46-7.2s-3.15-4.32-7-1.1C457.54,685.14,456.06,685.76,454.91,686.66Z"/><path class="cls-19" d="M474.17,690a2.51,2.51,0,0,0,2.94,3.07,8,8,0,0,0,4.28-3.47,8.29,8.29,0,0,0,1.58-5.94,3.9,3.9,0,0,0-3.28-3c-1.34,0-3.94,1-4.57,5.34C474.93,687.26,474.39,688.7,474.17,690Z"/><path class="cls-19" d="M456.79,672.68c-1,1.51-.78,4.88-.26,6.25s1.52,2.47,2.55,2.34c1.38-.18,2-1.26,2.66-3.12a16.66,16.66,0,0,0,.13-6.62c-.39-1.67-1.54-4-3.32-1.1C458,671.31,457.32,671.86,456.79,672.68Z"/><path class="cls-19" d="M461.16,708.44c-1.67-.7-5,.11-6.2.86s-2.16,1.94-1.85,2.93c.43,1.33,1.6,1.76,3.55,2.06a16.74,16.74,0,0,0,6.54-1.06c1.57-.68,3.68-2.23.48-3.47C462.73,709.4,462.06,708.81,461.16,708.44Z"/><path class="cls-19" d="M433.94,676.76c-1.57-.59-3.37.77-3.8,1.8a3.87,3.87,0,0,0,.42,3.62,4.23,4.23,0,0,0,3.67,1.9,5.9,5.9,0,0,0,3.92-2.07c.69-1,1.25-3-1.69-4C435.59,677.66,434.78,677.07,433.94,676.76Z"/><path class="cls-19" d="M431.87,689.28c-.84-2.07-2.73-1.83-3.5-.86a8.33,8.33,0,0,0-1.37,5,8.58,8.58,0,0,0,1.71,5.55,3,3,0,0,0,3.71.61c.94-.7,2.28-2.89.67-6.66C432.61,691.83,432.32,690.4,431.87,689.28Z"/><path class="cls-19" d="M466.94,663.76c-1.57-.59-3.37.77-3.8,1.8a3.87,3.87,0,0,0,.42,3.62,4.23,4.23,0,0,0,3.67,1.9,5.9,5.9,0,0,0,3.92-2.07c.69-1,1.25-3-1.69-4C468.59,664.66,467.78,664.07,466.94,663.76Z"/><path class="cls-19" d="M470.13,658.81c1.31-1,1.1-3.27.45-4.18a3.89,3.89,0,0,0-3.3-1.53,4.23,4.23,0,0,0-3.55,2.12,5.94,5.94,0,0,0-.29,4.43c.48,1.11,1.94,2.67,4.34.69C468.49,659.75,469.41,659.37,470.13,658.81Z"/><path class="cls-19" d="M462.31,650.91c1.14.48,3.3-.16,4.11-.73s1.37-1.44,1.11-2.15c-.34-1-1.14-1.25-2.46-1.44a10.28,10.28,0,0,0-4.34.88c-1,.52-2.37,1.68-.17,2.52C461.21,650.24,461.68,650.65,462.31,650.91Z"/><path class="cls-19" d="M452.26,645.16c1.11-.56,2.05-2.61,2.15-3.59s-.2-2-.9-2.25c-.95-.37-1.7,0-2.7.92a10.15,10.15,0,0,0-2.18,3.86c-.28,1.11-.28,2.89,1.79,1.78C451,645.55,451.66,645.46,452.26,645.16Z"/><path class="cls-19" d="M440.89,665.3a1.6,1.6,0,0,0,1-1.51,1.47,1.47,0,0,0-.83-1.2,1.65,1.65,0,0,0-1.65.16,2.77,2.77,0,0,0-1,1.64c-.06.51.13,1.38,1.35,1.06C440.14,665.36,440.53,665.38,440.89,665.3Z"/><path class="cls-19" d="M424.5,661.5c.71-2.12,1.37-3.13,1-4s-1-1.69-1.8-1.63c-1,.09-1.71,1.45-2.23,2.68-.39.93-.24,5.88,0,7s1.34,3.66,3,2C425.5,666.5,423.5,664.5,424.5,661.5Z"/><path class="cls-19" d="M441.26,640.16c1.11-.56,2.05-2.61,2.15-3.59s-.2-2-.9-2.25c-.95-.37-1.7,0-2.7.92a10.15,10.15,0,0,0-2.18,3.86c-.28,1.11-.28,2.89,1.79,1.78C440,640.55,440.66,640.46,441.26,640.16Z"/><path class="cls-19" d="M431.25,651.7c-.06-1.69-2.12-3.76-3.31-4.29a3,3,0,0,0-3.37.26c-1,1.09-.92,2.25-.39,3.93a11.81,11.81,0,0,0,3.63,4.45c1.25.82,3.5,1.56,3.29-1.63C431,653.47,431.29,652.62,431.25,651.7Z"/><path class="cls-19" d="M468.6,685.52c1.16,2.38,3.39,1.94,4.23.72a9.84,9.84,0,0,0,1.19-6.08c-.32-3.32-1.14-4.86-2.49-6.44a3.57,3.57,0,0,0-4.46-.42c-1.06.91-2.46,3.63-.24,8C467.5,682.56,468,684.23,468.6,685.52Z"/><path class="cls-19" d="M455.22,705.05c1.09,1.33,3.33,1,4.2.29a4.12,4.12,0,0,0,1.37-3.52,4.47,4.47,0,0,0-2.29-3.61,5.65,5.65,0,0,0-4.44-.11c-1.09.55-2.57,2.15-.47,4.57C454.21,703.39,454.63,704.33,455.22,705.05Z"/><path class="cls-19" d="M444.3,705.89c-1.14,1.29-.46,3.44.39,4.18a4.12,4.12,0,0,0,3.7.79,4.45,4.45,0,0,0,3.19-2.85,5.66,5.66,0,0,0-.61-4.4c-.72-1-2.54-2.18-4.59.27C445.77,704.62,444.91,705.19,444.3,705.89Z"/><path class="cls-19" d="M463.55,701.73a3.8,3.8,0,0,0,2.11,5.38,8.09,8.09,0,0,0,6.26-1.26,8.56,8.56,0,0,0,4.17-5.82c.41-1.74-1-4.65-2.54-5.52s-4.87-1.36-7.32,3.22C465.5,699.1,464.3,700.4,463.55,701.73Z"/><path class="cls-19" d="M440.17,673.29a3.69,3.69,0,0,0,1,3.2,2,2,0,0,0,2.17.48c.89-.46,1.11-1.17,1.19-2.28a6.83,6.83,0,0,0-1.19-3.35c-.58-.73-1.8-1.59-2.44.35C440.73,672.27,440.37,672.74,440.17,673.29Z"/></g><polygon id="dermis" class="cls-19" points="1053.9 216 673.19 440.65 295.5 219.5 293 162.35 673.5 364.09 1056.5 160.5 1053.9 216"/><polygon class="cls-20" points="673.32 325.87 291.5 133.5 677 22 1058 131 673.32 325.87"/><polygon class="cls-19" points="1056.5 160.5 673.5 365.43 293.04 163.57 292.05 134 673 326 1058 131 1056.5 160.5"/><path class="cls-17" d="M673.19,440.65,295.5,219.5l5,111s12.66-3.46,19-2c26,6,28.05,29.51,40,31,24,3,24,24,30,22,10.48-3.49,26,4,26.65,17.88.18,3.95,5.7,6.46,12.35,9.12,14.76,5.91,9.82,19,23.84,26.53,15.49,8.28,39-1.11,58.16,2.47,30.51,5.69,55.47,25.92,61,64,3,20.37,16,4,33,21,8.61,8.61,7,25.09,17,32s31,1,39,18c6.66,14.16,12.07,14.14,12.07,14.14s9.7-11.81,18.93-18.14c21.74-14.91,37.78-7.26,48-35,6.55-17.77,46.36-58.18,78-45,12,5,40.15-38.12,52-47,20-15,42.71-2.39,56-21,1.56-2.18,8.49-13.28,21-11,11,2,13-34,33-37,33.24-5,21-27,53-29,5.42-.34,15.74,4.1,15.74,4.1L1053.9,216Z"/><path id="fat-hypodermis" class="cls-21" d="M672,693.84,304.5,413.5l-4-83s12.66-3.46,19-2c26,6,28.05,29.51,40,31,24,3,24,24,30,22,10.48-3.49,26,4,26.65,17.88.18,3.95,5.7,6.46,12.35,9.12,14.76,5.91,9.82,19,23.84,26.53,15.49,8.28,39-1.11,58.16,2.47,30.51,5.69,55.47,25.92,61,64,3,20.37,16,4,33,21,8.61,8.61,7,25.09,17,32s31,1,39,18c6.66,14.16,12.07,14.14,12.07,14.14s9.7-11.81,18.93-18.14c21.74-14.91,37.78-7.26,48-35,6.55-17.77,46.36-58.18,78-45,12,5,40.15-38.12,52-47,20-15,42.71-2.39,56-21,1.56-2.18,8.49-13.28,21-11,11,2,13-34,33-37,33.24-5,21-27,53-29,5.42-.34,15.74,4.1,15.74,4.1l-2.65,61.61Z"/><path class="cls-22" d="M674.82,1551.56,419.62,1203.5s-6-7,4-21c24.34-34.08,72-64,161-106s317-34,388,42l5.18,15.5Z"/><path class="cls-23" d="M978.62,1133.5c2-34-158.24-128.71-304.62,29.65l.82,388.41Z"/><path class="cls-24" d="M675,1163.15c-50.38-55.65-256.38-14.65-256.38,37.35l257.2,351.06S675.35,1163.53,675,1163.15Z"/></g><g id="pattern"><path class="cls-25" d="M498.48,597.88c11.38,17.55,18.93,40,31,57.62,28.73,41.9,20.25,71.41,4.45,89a1.82,1.82,0,0,0,.16,2.57L668.82,867.3a1.81,1.81,0,0,0,3-1.37L670,694.72a1.85,1.85,0,0,0-.71-1.42L428.92,510.45a1.81,1.81,0,0,0-2.91,1.49L428,573.76a1.8,1.8,0,0,0,2.23,1.7C452.68,569.75,482.91,573.84,498.48,597.88Z"/><path class="cls-25" d="M535.24,748a3.58,3.58,0,0,0-4.84.1,66.83,66.83,0,0,1-17.56,12c-23.65,11-73.69,7.08-93.34-9.55-26-22-41-43-43-87a101,101,0,0,1,9.05-45.89,3.55,3.55,0,0,0-.89-4.1l-70-62.5a3.56,3.56,0,0,0-5.93,2.81l5.15,118.23a3.53,3.53,0,0,0,1,2.35l350.51,354a3.56,3.56,0,0,0,6.09-2.5l.36-154.24a3.57,3.57,0,0,0-1.19-2.66Z"/><path class="cls-25" d="M410.5,584.5a49.21,49.21,0,0,1,14-7.33,5.73,5.73,0,0,0,3.82-5.62L426,510.84a5.74,5.74,0,0,0-2.24-4.33L312.26,421a5.73,5.73,0,0,0-9.21,4.8L308.28,543a5.66,5.66,0,0,0,1.9,4l70.95,63.46a5.72,5.72,0,0,0,8.77-1.37A84.21,84.21,0,0,1,410.5,584.5Z"/></g><g id="outlines"><path class="cls-26" d="M498.48,597.88c11.38,17.55,18.93,40,31,57.62,29,42.32,20.08,72,4,89.47a1.07,1.07,0,0,0,.07,1.54L670.05,868.4a1.08,1.08,0,0,0,1.8-.82L670,694.37a1.11,1.11,0,0,0-.43-.85l-241.87-184a1.09,1.09,0,0,0-1.74.9l2,64.25a1.08,1.08,0,0,0,1.36,1C451.92,569.65,482.71,573.54,498.48,597.88Z"/><path class="cls-26" d="M534.6,747.43a2.63,2.63,0,0,0-3.58.06,66.68,66.68,0,0,1-18.18,12.56c-23.65,11-73.69,7.08-93.34-9.55-26-22-41-43-43-87a101,101,0,0,1,9.3-46.45,2.63,2.63,0,0,0-.63-3.08l-72.12-64.42a2.64,2.64,0,0,0-4.39,2.09l5.25,120.76a2.62,2.62,0,0,0,.76,1.74L667,1030a2.64,2.64,0,0,0,4.51-1.85l.37-156.89a2.68,2.68,0,0,0-.88-2Z"/><path class="cls-26" d="M410.5,584.5a51.26,51.26,0,0,1,16.32-8.1,2.22,2.22,0,0,0,1.59-2.21l-2.48-65a2.21,2.21,0,0,0-.86-1.67l-118.8-91.12a2.22,2.22,0,0,0-3.56,1.86l5.63,126.21a2.22,2.22,0,0,0,.74,1.55l75.37,67.41a2.21,2.21,0,0,0,3.43-.63C393.94,601.07,401.89,591.24,410.5,584.5Z"/><line class="cls-27" x1="1042.41" y1="437.04" x2="671.5" y2="730.28"/><line class="cls-27" x1="1041.73" y1="462.73" x2="671.5" y2="766.28"/><line class="cls-27" x1="1040.73" y1="489.73" x2="671.5" y2="800.28"/><line class="cls-27" x1="1039.5" y1="514.5" x2="671.5" y2="835.28"/><line class="cls-27" x1="1036.5" y1="568.5" x2="671.5" y2="902.28"/><line class="cls-27" x1="1035.5" y1="594.5" x2="671.5" y2="935.28"/><line class="cls-27" x1="1034.73" y1="620.73" x2="671.5" y2="968.28"/><line class="cls-27" x1="1033.5" y1="644.5" x2="671.5" y2="1002.28"/><polyline class="cls-28" points="1054.5 150.5 672.88 353.31 290.5 152.5"/><polyline class="cls-28" points="1055.5 140.5 672.88 339.31 290.5 141.5"/><g class="cls-29"><polygon class="cls-30" points="712.5 187.5 606.5 143.5 454.5 152.5 433.5 206.5 539.5 260.5 694.5 260.5 712.5 187.5"/><polygon class="cls-30" points="854.5 129.5 743.5 94.5 610.5 100.5 606.5 143.5 712.5 186.5 849.5 186.5 854.5 129.5"/><polygon class="cls-30" points="956.5 100.5 789.5 54.5 740.5 58.5 743.5 94.5 854.5 129.5 975.5 129.5 956.5 100.5"/><line class="cls-30" x1="849.5" y1="186.5" x2="902.23" y2="205.37"/><line class="cls-30" x1="975.5" y1="129.5" x2="1026.25" y2="143.72"/><line class="cls-30" x1="694.5" y1="260.5" x2="746.98" y2="284.32"/><polyline class="cls-30" points="740.5 58.5 654.66 32.97 627.57 35.08"/><polyline class="cls-30" points="610.5 100.5 525.76 70.67 522.28 65.45"/><polyline class="cls-30" points="454.5 152.5 371.4 115.81 368.54 109.78"/><line class="cls-30" x1="371.4" y1="115.81" x2="347.65" y2="115.81"/></g><line class="cls-31" x1="1037.86" y1="540.55" x2="671.88" y2="871.22"/></g><g id="overlays-shading"><polygon class="cls-32" points="1059 131 674 326 675.7 1550.56 1017.68 1081 1059 131"/><polygon class="cls-17" points="1034.62 672.5 673.62 1035.5 316.07 674.42 334.12 1086 674.82 1551.56 1016.79 1082 1034.62 672.5"/><text/><text class="cls-33" transform="translate(69 187.24)">Skin: su<tspan class="cls-34" x="127.69" y="0">r</tspan><tspan x="140.48" y="0">face</tspan></text><text class="cls-33" transform="translate(112.38 287.24)">Skin: deep</text><text class="cls-33" transform="translate(229.37 389.24)"><tspan class="cls-35">F</tspan><tspan x="19.84" y="0">at</tspan></text><text class="cls-33" transform="translate(161.7 507.24)">Muscle</text><text class="cls-33" transform="translate(197.27 644.24)">Bone</text><text class="cls-33" transform="translate(182.17 1096.24)">Organ</text></g></g></svg>