<svg xmlns="http://www.w3.org/2000/svg" viewBox="0 0 874 1635.64"><defs><style>.cls-1{fill:#bce0fd;}</style></defs><g id="Layer_2" data-name="Layer 2"><g id="people-whole"><path class="cls-1" d="M437,0h-1s-41-1-60,24c-21.65,28.48-22,57.15-22,77,0,1.31-.62-.32-4-2-10-5-5,47,7,55,4.07,2.7,4.51-4.12,5.32,1.39,3.5,24,1.52,36.22,10.68,57.61,3,7-1,18-1,18s-16.84,24.57-46.61,34.49-52.54,19.85-52.54,19.85-25.85,10.92-45.7,30.77-32.77,59.54-32.77,59.54S148.69,474.9,138.76,514.6c0,0-19.84,19.85-29.77,39.69S79.22,633.68,49.45,742.84c0,0,0,9.93-9.92,29.78-7.42,14.82-25.91,40.73-34.79,52.89A24.6,24.6,0,0,0,0,840.85c.51,15.1,2.44,46.83,9.74,70.7,2.44,8,9.93,19.85,19.85,29.77,4.13,4.13,16.47,6.11,19.85,9.92h9.92s9.93,0,9.93-9.92-19.85-39.7-19.85-39.7V871.85L64,854.13s19.89-27.63,20-38c.13-12,11.44-40.56,11.44-40.56l49.62-69.47s43.32-62.49,53.25-92.26,29.77-39.7,39.69-119.09c0,0-8,29.77,1.93,49.62s-4,59.54-13.93,89.31S195.08,694.23,195.08,724c0,28.53,7.22,30.66,0,59.54-9.93,39.69,20.71,133.52,26,177.63,5.41,45.12,66.54,138.93,66.54,158.78v69.46c0,19.85,0,19.85-9.92,69.47s0,138.93,9.92,168.7,19.85,79.4,19.85,99.24-19.85,59.55-19.85,59.55-11.09,24.35,28.38,45.76c19.51,10.57,41.09-6.07,41.09-6.07s9.92-9.92,9.92-19.85V1497.05s19.85-99.24,29.77-129,9.93-129,9.93-148.85,9.92-29.78,9.92-69.47S428,1097,431,1005c.31-9.41,3.16-33,3-39.88a2.36,2.36,0,0,1,2.49-2h1a2.36,2.36,0,0,1,2.49,2c-.16,6.84,2.69,30.47,3,39.88,3,92,14.37,105,14.37,144.71s9.92,49.62,9.92,69.47,0,119.08,9.93,148.85,29.77,129,29.77,129v109.16c0,9.93,9.92,19.85,9.92,19.85s21.58,16.64,41.09,6.07c39.47-21.41,28.38-45.76,28.38-45.76s-19.85-39.7-19.85-59.55,9.93-69.46,19.85-99.24,19.85-119.08,9.92-168.7-9.92-49.62-9.92-69.47V1120c0-19.85,61.13-113.66,66.54-158.78,5.29-44.11,35.93-137.94,26-177.63-7.22-28.88,0-31,0-59.54,0-29.77-21-60.55-30.92-90.32s-23.85-69.46-13.93-89.31S636,494.75,636,494.75c9.92,79.39,29.77,89.31,39.69,119.09s53.25,92.26,53.25,92.26l49.62,69.47s11.31,28.61,11.44,40.56c.11,10.37,20,38,20,38l14.55,17.72v29.77s-19.85,29.78-19.85,39.7,9.93,9.92,9.93,9.92h9.92c3.38-3.81,15.72-5.79,19.85-9.92,9.92-9.92,17.41-21.81,19.85-29.77,7.3-23.87,9.23-55.6,9.74-70.7a24.6,24.6,0,0,0-4.73-15.34c-8.88-12.16-27.37-38.07-34.79-52.89-9.92-19.85-9.92-29.78-9.92-29.78C794.78,633.68,774.93,574.14,765,554.29s-29.77-39.69-29.77-39.69c-9.93-39.7-55.62-138.94-55.62-138.94S666.69,336,646.85,316.12s-45.7-30.77-45.7-30.77-22.77-9.92-52.54-19.85S502,231,502,231s-4-11-1-18c9.16-21.39,7.18-33.56,10.68-57.61.81-5.51,1.25,1.31,5.32-1.39,12-8,17-60,7-55-3.38,1.68-4,3.31-4,2,0-19.85-.35-48.52-22-77C479-1,438,0,438,0h-1"/></g></g></svg>