<svg xmlns="http://www.w3.org/2000/svg" viewBox="0 0 655.66 1678.87"><defs><style>.cls-1{fill:#bce0fd;}</style></defs><g id="Layer_2" data-name="Layer 2"><g id="people-whole"><path class="cls-1" d="M327.74,0s38.19-.37,55.72,18.42c11.62,12.45,33.81,57.6,30.06,95.16,0,0-7.52,45.08-17.53,66.37s-16.4,29.9-22.54,33.81v26.3s1.13,22.46,5,31.3,11.26,13.78,23.79,20,60.1,11.27,75.13,16.28,40.07,18.78,46.33,38.81,8.77,61.36,11.27,95.17,12.52,96.42,18.78,116.46,22.54,36.31,30.06,60.1,15,37.57,22.54,85.15,22.54,95.17,22.54,95.17,15.05,41.61,18.31,51.17c11.29,33.1,8,66,8,66s-2.52,90.69-8.78,94.45-16.28-2.5-15-11.27-3.76-37.57-2.5-42.57-11.69-34.49-11.69-34.49-12.82-34.68-16-48c-2.83-11.84-8.63-51.5-8.63-51.5s-50.09-93.92-56.35-108.94-32.55-62.61-32.55-77.64c0-6.86-13.51-38.29-20-70.12-7.76-37.85-10-63.86-10-63.86l-3.75,58.85s1.25,58.85,5,91.41,27.55,63.86,32.56,92.66S532.48,827.34,528.72,895s-14.54,146.45-39.83,216S471.12,1218,471.12,1218s7.51,61.35,10,100.17-5,137.74-5,137.74-5,72.63-5,92.67,1.25,57.6,7.51,68.87,2.58,26.35-4.42,37.35c-4.25,6.68-8.49,29.09-45,23-18-3-21.95-36.56-21.95-36.56s-3.05-26.44-2.51-47.58c1.09-42.64-3.76-87.66-6.26-101.43s-17.53-50.09-20-71.38-6.27-129-10-140.24-6.26-36.32-8.77-58.86-1.25-121.46-3.75-134-23.21-99.12-20.71-153c0,0-5.59.2-10.6.2"/><path class="cls-1" d="M402.25,152.4s3.64,7.52,8.08,0,13.2-35.06,8.2-38.82a18.34,18.34,0,0,0-10-3.75"/><path class="cls-1" d="M496.21,1632.83c8.63-16.47,23-50,23-50s4-12.36,0-18.68-21.15-23.58-29.08-26-18.92-1.37-20.92,4.63-15,18-15,18-36,81-21,84,16,34,26,30S485.21,1653.83,496.21,1632.83Z"/><path class="cls-1" d="M327.92,0s-38.19-.37-55.73,18.42c-11.62,12.45-33.8,57.6-30.05,95.16,0,0,7.51,45.08,17.53,66.37s16.39,29.9,22.54,33.81v26.3s-1.14,22.46-5,31.3-11.27,13.78-23.79,20-60.1,11.27-75.13,16.28S138.21,326.46,132,346.49s-8.77,61.36-11.27,95.17-12.52,96.42-18.78,116.46-22.54,36.31-30.06,60.1-15,37.57-22.54,85.15-22.54,95.17-22.54,95.17-15,41.61-18.31,51.17c-11.29,33.1-8,66-8,66S3,1006.4,9.23,1010.16s16.28-2.5,15-11.27,3.76-37.57,2.5-42.57,11.69-34.49,11.69-34.49,12.81-34.68,16-48c2.83-11.84,8.63-51.5,8.63-51.5s50.09-93.92,56.35-108.94S152,650.78,152,635.75c0-6.86,13.51-38.29,20-70.12,7.76-37.85,10-63.86,10-63.86l3.75,58.85s-1.25,58.85-5,91.41-27.54,63.86-32.55,92.66-25,82.65-21.29,150.27,14.53,146.45,39.82,216S184.54,1218,184.54,1218s-7.51,61.35-10,100.17,5,137.74,5,137.74,5,72.63,5,92.67-1.25,57.6-7.51,68.87-2.58,26.35,4.42,37.35c4.25,6.68,8.49,29.09,45,23,18-3,22-36.56,22-36.56s3-26.44,2.51-47.58c-1.09-42.64,3.75-87.66,6.26-101.43s17.53-50.09,20-71.38,6.26-129,10-140.24,6.26-36.32,8.77-58.86,1.25-121.46,3.75-134,24-99.12,21.47-153c0,0,4.83.2,9.84.2"/><path class="cls-1" d="M253.41,152.4s-3.65,7.52-8.08,0-13.21-35.06-8.2-38.82a18.34,18.34,0,0,1,10-3.75"/><path class="cls-1" d="M159.45,1632.83c-8.63-16.47-23-50-23-50s-4-12.36,0-18.68,21.15-23.58,29.07-26,18.93-1.37,20.93,4.63,15,18,15,18,36,81,21,84-16,34-26,30S170.45,1653.83,159.45,1632.83Z"/></g></g></svg>