<svg xmlns="http://www.w3.org/2000/svg" viewBox="0 0 873 1704.35"><defs><style>.cls-1{fill:#bce0fd;}</style></defs><g id="Layer_2" data-name="Layer 2"><g id="people-whole"><path class="cls-1" d="M432.32,962a1.87,1.87,0,0,0-1.72,1.92c.16,6.84.71,31.66.4,41.07-3,92-14.37,105-14.37,144.71s-9.92,49.62-9.92,69.47,0,119.08-9.93,148.85-29.77,129-29.77,129v109.16c0,9.93-9.92,19.85-9.92,19.85s-39.7,49.62-49.62,69.47-49.62,0-59.54,0-19.58-23.74-19.58-23.74,9.65-25.88,19.58-25.88,39.69-59.54,39.69-59.54,19.85-39.7,19.85-59.55-9.93-69.46-19.85-99.24-19.85-119.08-9.92-168.7,9.92-49.62,9.92-69.47V1120c0-19.85-61.13-113.66-66.54-158.78-5.29-44.11-35.93-137.94-26-177.63,7.22-28.88,0-31,0-59.54,0-29.77,21-60.55,30.92-90.32s23.85-69.46,13.93-89.31S238,494.75,238,494.75c-9.92,79.39-29.77,89.31-39.69,119.09s-53.25,92.26-53.25,92.26L95.44,775.57s-6.2,32.89-6.33,44.84c-.12,10.37-3.9,20.11-5.85,30.3-4,21.14-21.08,15-22.92-6.69-1-11.32-1-21.79-1-21.79L55.2,843.1l-5.75,28.75v29.77S69.3,931.4,69.3,941.32s-9.93,9.92-9.93,9.92H49.45c-3.38-3.81-15.72-5.79-19.85-9.92-9.92-9.92-17.41-21.81-19.85-29.77C2.45,887.69.52,856,0,840.86A24.66,24.66,0,0,1,4.74,825.5c8.88-12.15,27.37-38.06,34.79-52.88,9.92-19.85,9.92-29.78,9.92-29.78C79.22,633.68,99.07,574.14,109,554.29s29.77-39.69,29.77-39.69c9.93-39.7,55.62-138.94,55.62-138.94s12.93-39.69,32.77-59.54,45.7-30.77,45.7-30.77,22.77-9.92,52.54-19.85S372,231,372,231s4-11,1-18c-9.16-21.39-7.18-33.56-10.68-57.61-.81-5.51-1.25,1.31-5.32-1.39-12-8-17-60-7-55,3.38,1.68,4,3.31,4,2,0-19.85.35-48.52,22-77C395-1,436,0,436,0h1s41-1,60,24c21.65,28.48,22,57.15,22,77,0,1.31.62-.32,4-2,10-5,5,47-7,55-4.06,2.7-4.51-4.12-5.32,1.39-3.5,24-1.51,36.22-10.68,57.61-3,7,1,18,1,18s16.84,24.57,46.61,34.49,52.54,19.85,52.54,19.85,25.85,10.92,45.7,30.77,32.77,59.54,32.77,59.54,45.69,99.24,55.62,138.94c0,0,19.85,19.85,29.77,39.69s29.77,79.39,59.54,188.55c0,0,0,9.93,9.93,29.78,7.41,14.82,25.9,40.73,34.78,52.88A24.66,24.66,0,0,1,873,840.86c-.51,15.1-2.44,46.83-9.74,70.69-2.44,8-9.93,19.85-19.85,29.77-4.13,4.13-16.47,6.11-19.85,9.92h-9.92s-9.93,0-9.93-9.92,19.85-39.7,19.85-39.7V871.85L817.8,843.1l-4.17-20.87s0,10.47-1,21.79c-1.85,21.71-18.89,27.83-22.93,6.69-2-10.19-5.73-19.93-5.84-30.3-.14-11.95-6.34-44.84-6.34-44.84L727.94,706.1s-43.32-62.49-53.24-92.26-29.78-39.7-39.7-119.09c0,0,8,29.77-1.92,49.62s4,59.54,13.92,89.31,30.92,60.55,30.92,90.32c0,28.53-7.22,30.66,0,59.54,9.93,39.69-20.7,133.52-26,177.63-5.41,45.12-66.54,138.93-66.54,158.78v69.46c0,19.85,0,19.85,9.93,69.47s0,138.93-9.93,168.7-19.85,79.4-19.85,99.24,19.85,59.55,19.85,59.55,29.77,59.54,39.7,59.54,19.57,25.88,19.57,25.88-9.65,23.74-19.57,23.74-49.62,19.84-59.55,0-49.62-69.47-49.62-69.47-9.92-9.92-9.92-19.85V1497.05s-19.85-99.24-29.77-129-9.92-129-9.92-148.85-9.93-29.78-9.93-69.47S445,1097,442,1005c-.31-9.41.24-34.23.41-41.07a1.89,1.89,0,0,0-1.73-1.92l-1.72.26a15.61,15.61,0,0,1-4.92,0Z"/></g></g></svg>