<svg xmlns="http://www.w3.org/2000/svg" viewBox="0 0 684.28 1704.13"><defs><style>.cls-1{fill:#bce0fd;}</style></defs><g id="Layer_2" data-name="Layer 2"><g id="people-whole"><path class="cls-1" d="M342.17.15s-28.4-2.46-49.39,12.35-34.5,45.63-35.57,81.25c-.52,17.28,6,46,9.88,66.67,3.7,19.75,6.19,33.71,14.46,43.45,8.6,10.13,7.93,40,7.93,40S289,266.83,281.55,273,240.8,294,226,296.46,178.52,299,159.32,315c-14.82,12.35-32.1,39.51-32.1,70.38s-1.24,86.76-2.47,95.06c-1.1,7.42-6.17,37-24.69,84-2.52,6.38-16.67,30-19.76,44.44-3.7,17.29-13.58,44.45-22.22,76.55S19.81,823.65,19.81,823.65s-21,59.26-19.76,69.14S0,984.43,9.93,989.09c9.19,4.3,8.59-3.64,8.64-6.18,0,0,3.44-1.57,4.94-2.47,6.17-3.7,4.94-23.45,4.94-23.45,0-.45-.09-24.25,0-24.7,0,0,1.23-23,1.23-29.63,0-2.47,1.24-2.47,2.47,0,1.66,3.32-3.7,34.57,6.18,37,9.13,2.29,15.26-25.26,16.05-28.39,1.23-4.94,4.93-30.87,4.93-30.87s6.18-21,0-40.74c-4.19-13.44,19.5-52.81,30.87-71.61,17.14-28.36,63-103.71,66.67-125.93s27.42-100.4,31-142.8,3.58-52.27,3.58-52.27-2.76,32.94,5.41,52.27,14.34,16.87,15.58,49,3.7,83.95-1.24,116-25.92,46.92-32.1,103.71-7.41,181.49-1.23,219.76,23.46,108.65,23.46,134.58,2.47,77.78-2.47,108.64-6.18,74.08-3.71,111.12,12.35,81.48,19.76,104.94,13.58,66.67,13.58,84,2.47,54.32,0,66.67-12.35,34.57-21,44.44-22.22,21-22.22,29.63,1.23,18.52,16.05,23.46,51.85,9.88,65.43,8.64,21-32.1,21-44.44,9.88-24.7,9.88-24.7,11.11-14.81,2.47-43.21-6.18-76.54-7.41-98.77,8.64-97.53,8.64-121-1.23-101.24-1.23-106.18,9.87-34.57,11.11-54.32,3.7-140.75,6.17-159.27c2.19-16.45,12.18-86.42,14.38-120a11.6,11.6,0,0,1,11.55-10.82h0"/><path class="cls-1" d="M267.09,157.57s-4.31,4.59-10.64-6c-9.17-15.4-14.62-50.34-2.66-48.33s13.3,22.67,13.3,22.67"/><path class="cls-1" d="M342.11.15s28.4-2.46,49.39,12.35S426,58.13,427.07,93.75c.51,17.28-6,46-9.88,66.67-3.7,19.75-5.91,32.71-14.46,43.45-8.28,10.4-7.94,40-7.94,40s.53,22.93,7.94,29.11,40.74,21,55.56,23.45S505.75,299,525,315c14.81,12.35,32.1,39.51,32.1,70.38s1.23,86.76,2.47,95.06c1.1,7.42,6.17,37,24.69,84,2.52,6.38,16.67,30,19.75,44.44,3.71,17.29,13.59,44.45,22.23,76.55s38.27,138.28,38.27,138.28,21,59.26,19.76,69.14.07,91.64-9.88,96.3c-9.2,4.3-8.59-3.64-8.64-6.18,0,0-3.45-1.57-4.94-2.47-6.18-3.7-4.94-23.45-4.94-23.45,0-.45.09-24.25,0-24.7,0,0-1.24-23-1.24-29.63,0-2.47-1.23-2.47-2.47,0-1.65,3.32,3.71,34.57-6.17,37-9.13,2.29-15.27-25.26-16.05-28.39-1.23-4.94-4.94-30.87-4.94-30.87s-6.17-21,0-40.74c4.2-13.44-19.5-52.81-30.86-71.61-17.15-28.36-63-103.71-66.67-125.93s-27.42-100.4-31-142.8-3.57-52.27-3.57-52.27,2.75,32.94-5.41,52.27-14.35,16.87-15.58,49-3.7,83.95,1.23,116S499,711.3,505.2,768.09s7.41,181.49,1.24,219.76S483,1096.5,483,1122.43s-2.47,77.78,2.47,108.64,6.17,74.08,3.7,111.12-12.34,81.48-19.75,104.94-13.58,66.67-13.58,84-2.47,54.32,0,66.67,12.35,34.57,21,44.44,22.22,21,22.22,29.63-1.23,18.52-16,23.46-51.85,9.88-65.43,8.64-21-32.1-21-44.44-9.88-24.7-9.88-24.7-11.11-14.81-2.47-43.21,6.17-76.54,7.41-98.77-8.64-97.53-8.64-121,1.23-101.24,1.23-106.18-9.88-34.57-11.11-54.32-3.7-140.75-6.17-159.27c-2.2-16.45-12.18-86.42-14.39-120A11.59,11.59,0,0,0,341,921.18h0"/><path class="cls-1" d="M417.19,157.57s4.3,4.59,10.63-6c9.18-15.4,14.63-50.34,2.66-48.33s-13.29,22.67-13.29,22.67"/></g></g></svg>