<svg xmlns="http://www.w3.org/2000/svg" viewBox="0 0 661.45 1703.71"><defs><style>.cls-1{fill:#bce0fd;}</style></defs><g id="Layer_2" data-name="Layer 2"><g id="people-whole"><path class="cls-1" d="M333.71,0S295.51-.37,278,18.42c-11.62,12.45-33.81,57.6-30.05,95.16,0,0,7.51,45.08,17.53,66.37S278,206.71,288,213.76v26.3s-1.14,22.46-5,31.3-11.27,13.78-23.79,20-60.11,11.27-75.13,16.28S144,326.46,137.74,346.49s-8.77,61.36-11.27,95.17-12.53,96.42-18.79,116.46-22.54,36.31-30.05,60.1-15,37.57-22.54,85.15-22.54,95.17-22.54,95.17-10.92,30.85-15,40.07A215.52,215.52,0,0,0,0,911.71s8.76,94.69,15,98.45,16.28-2.5,15-11.27,3.75-37.57,2.5-42.57,5-50.09,5-50.09L38.81,890s-5,43.83,0,43.83,10,1.25,12.52-7.52S67,868.66,67,868.66l1.9-46.33S119,728.41,125.21,713.39s32.56-62.61,32.56-77.64c0-6.86,13.51-38.29,20-70.12,7.76-37.85,10-63.86,10-63.86l3.76,58.85s-1.25,58.85-5,91.41S159,715.89,154,744.69,129,827.34,132.73,895s14.53,146.45,39.82,216S190.33,1218,190.33,1218s-7.51,61.35-10,100.17,5,137.74,5,137.74,5,72.63,5,92.67-1.25,57.6-7.51,68.87-50.09,48.83-50.09,52.59-10,7.51,5,22.54,58.85,11.27,66.36,8.76,20-17.53,25.05-32.55,25-27.55,25-27.55,5.27-.51,2.51-47.58c-2.51-42.58,3.75-87.66,6.26-101.43s17.53-50.09,20-71.38,6.26-129,10-140.24,6.26-36.32,8.76-58.86,1.26-121.46,3.76-134,18.78-100.18,16.28-154c0,0,10,1.25,15,1.25"/><path class="cls-1" d="M259.2,152.4s-3.65,7.52-8.08,0-13.21-35.06-8.2-38.82a18.34,18.34,0,0,1,10-3.75"/><path class="cls-1" d="M333.53,0s38.19-.37,55.72,18.42c11.62,12.45,33.81,57.6,30.05,95.16,0,0-7.51,45.08-17.53,66.37s-16.39,29.9-22.54,33.81v26.3s1.14,22.46,5,31.3,11.27,13.78,23.79,20,60.11,11.27,75.14,16.28,40.07,18.78,46.33,38.81,8.76,61.36,11.27,95.17,12.52,96.42,18.78,116.46,22.54,36.31,30.05,60.1,15,37.57,22.54,85.15,22.54,95.17,22.54,95.17,15.06,41.61,18.32,51.17c11.29,33.1,8,66,8,66s-2.53,90.69-8.79,94.45-16.27-2.5-15-11.27-3.76-37.57-2.51-42.57-5-50.09-5-50.09L628.42,890s5,43.83,0,43.83-10,1.25-12.52-7.52-15.63-57.6-15.63-57.6l-1.9-46.33S548.28,728.41,542,713.39s-32.56-62.61-32.56-77.64c0-6.86-13.5-38.29-20-70.12-7.77-37.85-10-63.86-10-63.86l-3.76,58.85s1.26,58.85,5,91.41,27.55,63.86,32.56,92.66,25,82.65,21.29,150.27-14.54,146.45-39.83,216S476.91,1218,476.91,1218s7.51,61.35,10,100.17-5,137.74-5,137.74-5,72.63-5,92.67,1.25,57.6,7.51,68.87,50.09,48.83,50.09,52.59,10,7.51-5,22.54-58.86,11.27-66.37,8.76-20-17.53-25-32.55-25-27.55-25-27.55-5.27-.51-2.5-47.58c2.5-42.58-3.76-87.66-6.26-101.43s-17.53-50.09-20-71.38-6.26-129-10-140.24-6.27-36.32-8.77-58.86-1.25-121.46-3.76-134-18.78-100.18-16.28-154c0,0-10,1.25-15,1.25"/><path class="cls-1" d="M408,152.4s3.65,7.52,8.09,0,13.2-35.06,8.19-38.82a18.32,18.32,0,0,0-10-3.75"/></g></g></svg>